<svg xmlns="http://www.w3.org/2000/svg" xmlns:xlink="http://www.w3.org/1999/xlink" width="494.18" height="499.06" viewBox="0 0 494.18 499.06"><defs><filter id="luminosity-noclip" x="15.61" y="-8449.23" width="362.32" height="32766" filterUnits="userSpaceOnUse" color-interpolation-filters="sRGB"><feFlood flood-color="#fff" result="bg"/><feBlend in="SourceGraphic" in2="bg"/></filter><mask id="mask" x="15.61" y="-8449.23" width="362.32" height="32766" maskUnits="userSpaceOnUse"><g style="filter:url(#luminosity-noclip)"/></mask><radialGradient id="radial-gradient" cx="458.49" cy="483.32" r="540.55" gradientUnits="userSpaceOnUse"><stop offset="0"/><stop offset="0.37" stop-color="#020202"/><stop offset="0.51" stop-color="#090909"/><stop offset="0.6" stop-color="#141414"/><stop offset="0.68" stop-color="#252525"/><stop offset="0.75" stop-color="#3b3b3b"/><stop offset="0.8" stop-color="#575757"/><stop offset="0.86" stop-color="#777"/><stop offset="0.91" stop-color="#9d9d9d"/><stop offset="0.95" stop-color="#c8c8c8"/><stop offset="0.99" stop-color="#f6f6f6"/><stop offset="1" stop-color="#fff"/></radialGradient><radialGradient id="radial-gradient-3" cx="140.14" cy="173.24" r="349.39" gradientTransform="translate(471.77 -35.63) rotate(81.38)" gradientUnits="userSpaceOnUse"><stop offset="0" stop-color="#fff"/><stop offset="0.39" stop-color="#fdfdfd"/><stop offset="0.53" stop-color="#f6f6f6"/><stop offset="0.63" stop-color="#ebebeb"/><stop offset="0.71" stop-color="#dadada"/><stop offset="0.77" stop-color="#c4c4c4"/><stop offset="0.84" stop-color="#a8a8a8"/><stop offset="0.89" stop-color="#888"/><stop offset="0.94" stop-color="#626262"/><stop offset="0.99" stop-color="#393939"/><stop offset="1" stop-color="#2b2b2b"/></radialGradient><filter id="luminosity-noclip-3" x="15.61" y="13.96" width="362.32" height="398.14" filterUnits="userSpaceOnUse" color-interpolation-filters="sRGB"><feFlood flood-color="#fff" result="bg"/><feBlend in="SourceGraphic" in2="bg"/></filter><mask id="mask-3" x="7.01" y="5.86" width="362.32" height="398.14" maskUnits="userSpaceOnUse"><g style="filter:url(#luminosity-noclip-3)"><g transform="translate(-8.6 -8.1)"><g style="mask:url(#mask)"><path d="M374.41,62c-26.24-23.38-34.21-36-88.1-45.23-60.91-10.47-130,8.49-179.5,47.08A240,240,0,0,0,30.27,167.12c-7.41,19.43-12.72,41.51-14.15,62.3C13.3,270.19,22.61,311.28,36,349.55c9.16,26.12,25.09,48.32,49.49,61.8,6.36,3.51,13.67-6,11.85-11.77-10-31.61,5.07-61.29,16.18-90.43,6.83-17.91,15.2-36,9.69-55.42-5.81-20.5-33.88-18.44-45.54-32.8-10.78-13.29,6.46-36.52,14.4-46.37,16-19.81,32.54-24.3,56.29-16.83,42.7,13.42,50.13-51.92,86.39-52.61,11.35-.21,20.46,11.1,29.72,16.1,8.74,4.72,15.67,5.93,25.43,5.12,8.39-.7,16.84-8.22,22.94-13.31a220.86,220.86,0,0,1,38.49-25.78C361.12,82,387.37,73.58,374.41,62Z" style="mix-blend-mode:multiply;fill:url(#radial-gradient)"/></g></g></g></mask><radialGradient id="radial-gradient-4" cx="458.49" cy="483.32" r="540.55" gradientUnits="userSpaceOnUse"><stop offset="0" stop-color="#2b2b2b"/><stop offset="0.39" stop-color="#2d2d2d"/><stop offset="0.53" stop-color="#343434"/><stop offset="0.63" stop-color="#3f3f3f"/><stop offset="0.71" stop-color="#505050"/><stop offset="0.77" stop-color="#666"/><stop offset="0.84" stop-color="#828282"/><stop offset="0.89" stop-color="#a2a2a2"/><stop offset="0.94" stop-color="#c8c8c8"/><stop offset="0.99" stop-color="#f1f1f1"/><stop offset="1" stop-color="#fff"/></radialGradient></defs><title>favicon</title><g style="isolation:isolate"><g id="Layer_1" data-name="Layer 1"><circle cx="256.6" cy="258.04" r="245.78" transform="translate(-15.15 501.31) rotate(-88.85)" style="fill:#00b0ef"/><path d="M502.78,258.05s0,1.51-.09,4.43,0,7.26-.49,12.91a235.17,235.17,0,0,1-8,48.41c-5.65,20.34-14.52,44.86-30.55,69.85A247,247,0,0,1,394.92,465a254.1,254.1,0,0,1-50.63,26.46c-18.45,7.21-38.59,11.73-59.46,14.16-41.85,4.79-87.14-1.86-128.71-20.93A253.08,253.08,0,0,1,8.6,258.05a273.23,273.23,0,0,1,2.27-36.44,258.53,258.53,0,0,1,7.57-35.71A248.11,248.11,0,0,1,155.3,29.51a240.62,240.62,0,0,1,64.9-18.82c5.5-.67,11-1.49,16.42-1.78,2.73-.18,5.45-.46,8.17-.55l8.13-.2c5.65-.22,10.7.19,16,.25,5.34.43,10.74.68,16,1.35C305.82,12.29,326,17,344.42,24.24A254.26,254.26,0,0,1,395,50.87a248.21,248.21,0,0,1,68.69,71.53c16,25,24.92,49.52,30.54,69.87a234.33,234.33,0,0,1,8,48.41c.51,5.65.37,10,.49,12.93S502.78,258.05,502.78,258.05Zm-.81,0s-.05-1.5-.14-4.42-.07-7.25-.64-12.87a233.54,233.54,0,0,0-8.51-48,213.66,213.66,0,0,0-12-32.66,234.64,234.64,0,0,0-20.05-35.64A247.28,247.28,0,0,0,284,18c-5.06-.64-10.11-.85-15.24-1.26l-7.9-.18-4-.1-3.82.09-7.86.21c-2.63.11-5.26.39-7.9.57-5.28.29-10.55,1.11-15.85,1.76A238.38,238.38,0,0,0,189.78,26c-5.28,1.39-10.42,3.32-15.67,5-5.12,2-10.37,3.8-15.4,6.18A244.41,244.41,0,0,0,13.05,258.05a267.68,267.68,0,0,0,2.28,35.78,251.63,251.63,0,0,0,7.48,35,245.08,245.08,0,0,0,30.07,64.39c26.19,39.4,63.72,70,105,87.47,5.09,2.36,10.41,4.11,15.58,6.11,5.3,1.68,10.49,3.56,15.84,4.88a240.6,240.6,0,0,0,31.94,6.52c5.34.59,10.65,1.34,15.92,1.56,2.64.14,5.23.39,7.9.45l8,.13c5.17.21,10.44-.21,15.6-.28,5.16-.43,10.32-.67,15.38-1.34a249.12,249.12,0,0,0,176.66-107,233.76,233.76,0,0,0,20-35.65,213.06,213.06,0,0,0,12-32.68,233.91,233.91,0,0,0,8.47-48.05c.57-5.61.48-10,.63-12.88S502,258,502,258Z" transform="translate(-8.6 -8.1)" style="fill:#0065d0"/><circle cx="256.6" cy="256.52" r="245.78" transform="translate(-44.08 463.68) rotate(-81.38)" style="mix-blend-mode:multiply;fill:url(#radial-gradient-3)"/><path d="M199.2,493.17c2.77,1.6,5.48,3.34,8.3,4.79a28.3,28.3,0,0,0,2.8,1.42c1.45.28,2.9.53,4.36.79q2.9-5.76,5.77-11.53a35.21,35.21,0,0,0-1.89-5.84c-1.52-3.56-3.63-7.31-4.34-11.16-1.22-6.6-.74-13.86,3.39-19.53,5.09-7,14.19-14.81,15.59-23.74.33-2.09.64-4.53,1.88-6.32,6.27-9.07,15.24-15.93,22.08-24.7,9.12-11.68,12.18-22.91,17.16-36.57,4.38-12,17.12-23.16,16.29-36.62-1.12-18-21.06-19-34.12-25.05-13.48-6.28-28.93-13.41-36.78-26.79-7.16-12.21-11.2-32.18-23.57-40.23-5.88-3.82-8,.36-13.12-.9-3.84-.92-7.21-2.84-11-3.84-11.58-3.11-21.43,7-28.66,14.28-3,3-12.82,13.21-17.48,7-7.68-10.25-11.87-37.41,8.06-33.21,11.72,2.48,26.61-9,20.76-21.77-2.4-5.25-6.78-6-11.29-7.47s-8.79-2.78-11.63-6.69c-3.06-4.23,4.11-9,7-10.11,7.39-2.87,21.65-7.31,28.42-.88,4.48,4.25,11.34,15.15,18.08,14.1,14.36-2.25,12.86-11.85,17.2-21.12,4.94-10.53,17.45-9.92,27.24-9.73,14.9.29,29.05-4,43.5,1.07,11.63,4.08,14.86-6.06,18.77-15.14,2.45-5.7,4.68-11.47,6.92-17.26,2.43-6.27,6.37-12.62,7.42-19.28,2.22-14.17-11.25-26.43-25-26.46-17.14,0-34,4-51.24,1.4-5.7-.85-11.37-2.18-15.24-6.9-5.56-6.77-8.28-16.23-18.39-17.34a2.12,2.12,0,0,1-1.6-3.28c6.9-12.29,18.4-9.7,29.9-14.66,8-3.43,11.73-11.83,14.71-21C150.24,19,74.14,72.81,36.35,149c6.27.29,15.63.57,18.55,5.29,2.06,3.32,2.63,6.15,2.93,10,.7,8.84,3.71,11.3,11,14.1,21.83,8.41,12.14,44.88,25.61,60,5.4,6.07,20.32,23.3,4.29,27.7-6.21,1.71-12.56,1-18.9,1.58-22.81,2.06-.9,23.1,6.57,29.86,15.7,14.2,6.32,23.68-4,38.61-5.82,8.41,9.63,18.9,12.82,27.91C100,378,99,390.65,100.62,404.88c1.49,13.45,9.15,11.32,16.84,17.08a94.18,94.18,0,0,1,12.85,11.6c9.16,9.93,20.05,19.47,27.51,30.81,6.69,10.17,20.6,14.79,30.62,21.27C189.43,486.28,194,489.3,199.2,493.17Z" transform="translate(-8.6 -8.1)" style="fill:#84d1f6;mix-blend-mode:multiply"/><path d="M392.79,53.46c-8.54,9.27-14.61,19.43-5.23,29.73,5.38,5.93,15.33,12.78,12,21.82-1.4,3.86-7.26,6.39-10.89,7-13.8,2.45-11.71,21.12-11.23,31.85a122.29,122.29,0,0,1-.88,24.57c-2.87,18.52,17.66,12.54,27,5.48.84-.64,2.68-1.41,3.36,0,2.2,4.48,2.6,8.23,2.9,13.22.77,12.48,11,8.16,18.89,5.84,7.68-2.26,13.63-3.67,19.24,2.62,4.76,5.33-1.86,14.72,9.89,17.22,5.06,1.08,7,2.63,10.22,6.66,6.09,7.49-2.44,19.83-4.66,26.69-.53,1.66-2.21,3.46-4.07,2.38-9.35-5.43-25.76-19.17-32.89-4.69-1.93,3.91-4.83,7.81-9.91,7.12-9.31-1.28-27.19-16.09-32.48-1.31-2.17,6-3.78,12.67-7.51,18-5.44,7.81-11.44,10.14-20.41,12.52-22.27,5.92-7.14,20.83-4.33,33.21,1.22,5.34,1.89,11.24,4.05,16.3,3.31,7.73,11.16,2.67,15.85,2.11,5.09-.61,9.55-.09,13.22,3.72,7.57,7.86,19.09,19.91,11.49,31.25-2.59,3.87-6.14,7.1-8.6,11-6.19,9.89-.73,14.43,4.47,21.12,4.29,5.52,5.68,10.09,4,16.93-1,3.87-4.36,7.53-6.7,10.55-4.74,6.12-7.33,12.23-9.36,19.68-1.77,6.47-3.47,14.51-8.55,19.35-9.8,9.34-24,9.63-32.73,20.83-1.13,1.45-2.18,3-3.25,4.45,96.9-33,166.65-124.64,166.65-232.69A245.5,245.5,0,0,0,392.79,53.46Zm44,83a48.86,48.86,0,0,1-15.12,20.87c-1.06.84-3.18,1.33-3.61-.51-1.4-6-2.16-13.14,1.59-18.46,3.64-5.16,9.48-6.74,15.54-6.54,1.7,0,2.1,1.43,1.73,2.77A3.35,3.35,0,0,1,436.83,136.48Z" transform="translate(-8.6 -8.1)" style="fill:#84d1f6;mix-blend-mode:multiply"/><path d="M127.67,181.5c-20.74-8.35-23-30.48-33.68-47.33-8.5-13.47-20.07-21.43-32.92-24.94a244.24,244.24,0,0,0-19.78,30.32c26-1.68,50.06,10.84,51.78,44,1.18,22.84-6.14,42.28-17.26,61.87-12.75,22.47-33.23,49.45-33.47,76.37-.12,13.32,10.27,48.14,30.71,35.88,9.31-5.59,16.12-13.8,24.16-20.92,6.75-6,25.49-20.11,33.69-8.19,12.13,17.64-2.16,41.4,14,59.38,29.16,32.55,48.86-17,59.74-38.53,6.15-12.17,15-27,29.41-30.41a46.47,46.47,0,0,1,20.29-.28c17.67,3.22,25.38-19.12,24.32-32.41-1.17-14.52-13.86-61.66,8.59-67.88,16.21-4.49,24.67,9,35.75,18C342,251.79,364,224,341.8,211c-9.72-5.68-20.74-7.4-31.87-7.87-21.33-.92-67.72,3.1-68-29.17-.15-18.41,9.29-35.06,9.19-53.45-.2-35.88-28.78-10-43.32,2.11-10.16,8.45-23.4,14.92-35,4.93-4.92-4.23-7.23-11.42-10.18-17-1.74-3.27-4.12-9-7.52-10.79-13.09-7.1-13.42,14.39-13.09,19.1,1.16,16.74,7.09,32.05,3,48.79C143.46,174.29,136.05,184.87,127.67,181.5Z" transform="translate(-8.6 -8.1)" style="fill:#1cb6f0;opacity:0.30000000000000004;mix-blend-mode:multiply"/><path d="M47.23,237.05c10-14.43,20.47-32.48,13.83-50.74-7.59-20.91-24.72-23.77-36.9-8.11a245.17,245.17,0,0,0-10,120.16C20.22,274.24,33.19,257.27,47.23,237.05Z" transform="translate(-8.6 -8.1)" style="fill:#1cb6f0;opacity:0.30000000000000004;mix-blend-mode:multiply"/><path d="M256.6,12.27a244.77,244.77,0,0,0-99.41,21c7.11,24.43,19.94,44.77,51.08,40.93,25.9-3.2,48-19.87,74.46-11.71C298.4,67.32,305,82.34,304.89,97.3c-.07,10.08-4.68,19.89-8.76,28.86s-12.25,23.75-3.33,33.12c8,8.4,20.61,12.05,31.56,7.52,26.49-11,3.76-43,11.48-61.89,10.51-25.79,47.63-38.9,71.62-24.57,26.78,16,19.51,47.71-.49,66.43-15,14-55.21,43.82-21.92,61.68,16,8.59,33.8,7.73,50.31,14,28.54,10.89,32.44,36.2,13.34,58.7C437.89,293.91,422,301.26,405.8,304c-23.5,3.9-46.7-15.27-69.88-5.84-59.35,24.13,33.07,125-44.79,146.65-26.41,7.32-29.06-28-36.25-44-11.76-26.2-29-5.36-35.65,12.12-5.26,13.78-8.59,28.35-14.27,41.95-11.57,27.72-38.64,23.56-54.35,2.23-12.51-17-22.07-46.41-47.71-44.18-11.16,1-23.39,3.59-35,2.64A245.21,245.21,0,0,0,256.6,503.82c135.74,0,245.78-110,245.78-245.78S392.34,12.27,256.6,12.27Z" transform="translate(-8.6 -8.1)" style="fill:#1cb6f0;opacity:0.30000000000000004;mix-blend-mode:multiply"/><path d="M164.92,152.9c6.66,1.55,9,9.53,12,14.58,9.1,15.53,10.95-.91,14.73-7.19,3.52-5.83,2.54-10.34,9.79-13.7s15-4.82,22.89-6.08c10.73-1.73,20.48-3.1,31.36-2,17,1.77,27.7,3.56,35.38-16.76,3.71-9.83,10.77-29.82-5.51-34.17-11.27-3-20.82-.9-32,1.34s-20.41,2.89-31.41-.16c-8.31-2.3-13.72-10.63-22.27-13.54-6.12-2.08-14.87-4-19.54-8.92-10.14-10.66,3.36-22.73,12.38-28.43,3.09-1.94,8.42-2.36,11.95-2.76,13.18-1.48,19.45-8,25.88-17.9.83-1.29,1.65-2.56,2.48-3.83A245.86,245.86,0,0,0,39.76,142.3a6.58,6.58,0,0,0,4.7,1.62,16.63,16.63,0,0,1,4,.12c2.64.74,6.86,1.71,8.23,4.49,4.15,8.44,4.15,23.74,17.12,24.92,3.46.31,6.9.82,9.8,2.93,9.19,6.68,4.42,21.35,7.54,30.78,6,18.07,12.61,36,22.41,52.42,1.25,2.08.06,5.38-2.16,6.37-8.72,3.89-17.59,3.83-26.69,6.12-18.93,4.76,11.5,23.3,15,27.43,15,17.65-.6,27.42-12.37,39.26,8.79,8.34,14.82,16.49,17.14,29.11,3.49,19.07,2.92,39.52,18.38,53.67,14,12.82,28.58,23.6,41.37,37.78,14.61,16.19,32.73,23,51.19,32.16-3.68-10.12-16.2-19.94-12.22-30.91,4.84-13.29,17.26-20.16,20.07-34.77,1.21-6.22,7.37-10.95,12-14.42,8.8-6.63,16.8-12.25,20.67-23.54,6.91-20.23,14-34.8,25.74-52.35,21.78-32.64-56.65-29.62-66-54.38-7.36-19.62-23.49-44-48-43-13,.5-21.39,13-33.82,16.73-1.51,3.62-3.42,6.65-6.2,7.49-5.56,1.65-8.85-4.92-11.52-8.67-5.15-7.21-10.38-15.63-8.1-24.89,2.38-9.68,7.88-18.05,10.64-27.59-4-2.84-12.6-6.41-13.32-9.75-1.51-7-.39-14.2-.14-21.26a5.41,5.41,0,0,1,3.63-5C125.67,159.4,146.79,148.69,164.92,152.9Z" transform="translate(-8.6 -8.1)" style="fill:#72bb32"/><path d="M164.92,152.9c4.16,1,6.87,4.75,8.76,8.36s3.63,7.54,6.4,10.66l1.13,1.05a10.35,10.35,0,0,0,1.33.76,2.84,2.84,0,0,0,2.79-.73,16.65,16.65,0,0,0,3-5.38c.78-1.92,1.46-3.89,2.35-5.79s2-3.65,2.74-5.59a27.55,27.55,0,0,1,2.66-5.66,13,13,0,0,1,4.86-3.91c1.9-.89,3.86-1.57,5.78-2.37l6-1.75a218.19,218.19,0,0,1,24.64-4.06,109.48,109.48,0,0,1,24.94.43,44.3,44.3,0,0,0,12.34-.25,17.37,17.37,0,0,0,10.19-6.31,39.91,39.91,0,0,0,5.84-10.83,87.89,87.89,0,0,0,3.69-11.86c.83-4,1.36-8.21.46-12.18a11.74,11.74,0,0,0-7.51-8.71C279.56,86,271.08,86.31,263,87.72s-16.27,3.49-24.74,3.71c-4.19-.16-8.43-.2-12.52-1.26a24.69,24.69,0,0,1-11.63-4.82c-3.43-2.45-6.53-5.24-10-7.31s-7.52-3-11.49-4.37-8-2.79-11.38-5.58A16.39,16.39,0,0,1,177.09,63a11.36,11.36,0,0,1-1-6.51c.66-4.42,3.28-8.12,6.16-11.17a52.46,52.46,0,0,1,9.8-8c1.1-.61,1.94-.9,2.92-1.37l3.22-.82c2.11-.37,4.19-.64,6.25-.86,4.08-.63,8.06-1.43,11.59-3.41a31.84,31.84,0,0,0,9.16-7.81,116,116,0,0,0,7-10.18l.89,1.47-14.93,1.94-14.79,2.85c-4.88,1.15-9.71,2.51-14.57,3.76-4.81,1.42-9.54,3.11-14.31,4.64-4.72,1.71-9.33,3.7-14,5.52-4.61,2-9.08,4.27-13.63,6.38-4.47,2.27-8.8,4.81-13.21,7.2-4.31,2.54-8.48,5.34-12.73,8-4.15,2.81-8.14,5.85-12.22,8.76-4,3.08-7.77,6.33-11.66,9.49C93.29,76.24,89.67,79.71,86,83.1L75.56,93.94,65.84,105.4l-9,12L48.58,130l-7.47,13-.3-1.83a4.89,4.89,0,0,0,1.61.9,7.74,7.74,0,0,0,1,.21l1.06.08h-.14l4.36.12.11,0,.08,0c2.58.79,5.63,1.28,8.17,3.81a7.77,7.77,0,0,1,1.36,2.17,20.16,20.16,0,0,1,.81,2c.54,1.41.94,2.71,1.35,4.05,1.61,5.24,3,10.68,6.48,14.17a10.51,10.51,0,0,0,6.39,3A31.87,31.87,0,0,1,82,173.53l2,1.15.5.29a4.31,4.31,0,0,1,.52.42l.79.67a14.47,14.47,0,0,1,2.92,3.7,22.77,22.77,0,0,1,2.43,8.54c.61,5.7.12,11.28,1.13,16.32.5,2.35,1.65,5.08,2.48,7.65l2.71,7.82c2,5.09,3.84,10.26,6,15.27s4.27,10.09,7,14.79l3.91,7.19.49.9.35.68.2.47a6.23,6.23,0,0,1,.38,1.53,8.34,8.34,0,0,1,0,1.51A6.85,6.85,0,0,1,113,267.2l-.67.4a4.35,4.35,0,0,1-.67.28l-1,.34-2,.68c-1.33.42-2.55,1-4,1.29-2.79.57-5.73,1.31-8.4,1.69s-5.45.89-8.06,1.46-5.44,1.05-6.86,2.29a2.11,2.11,0,0,0-.9,1.93,6.83,6.83,0,0,0,1.21,2.9,33,33,0,0,0,5.16,5.77c4,3.66,8.31,6.83,12.71,10.45a12.49,12.49,0,0,1,1.77,1.75l1.25,1.65a24.05,24.05,0,0,1,2.41,3.65,18.9,18.9,0,0,1,2.69,8.7,16.52,16.52,0,0,1-2.06,8.94,33.28,33.28,0,0,1-5.12,7.09c-3.84,4.23-8.07,7.77-11.9,11.63l0-2.69a83.28,83.28,0,0,1,9,10A49.19,49.19,0,0,1,104,359.3a66.72,66.72,0,0,1,3,13.05l1.83,13c1.27,8.54,3,17,7,24.46a38.13,38.13,0,0,0,7.56,10c3.11,2.89,6.49,5.78,9.72,8.67L143,437c3.31,2.82,6.51,5.84,9.77,8.76s6.24,6.19,9.36,9.28,6,6.19,9.19,9.24l4.9,4.07c1.68,1.3,3.5,2.48,5.24,3.73a125.12,125.12,0,0,0,11.12,6.6c3.79,2.09,7.73,3.94,11.63,5.87L216,490.24l-1.9,1.71c-2.72-7.2-8.85-13.08-11.89-21.1a18.05,18.05,0,0,1-1.09-6.44,14.07,14.07,0,0,1,.56-3.29l.22-.8a6.21,6.21,0,0,1,.33-.81l.63-1.38,1.26-2.76,1.66-2.7a56.19,56.19,0,0,1,3.57-5.09c5-6.42,10.27-12.58,12.19-20.2l.87-2.95a12.77,12.77,0,0,1,1.23-3,22.46,22.46,0,0,1,3.88-5.09,86.56,86.56,0,0,1,9.54-7.78,89.79,89.79,0,0,0,9.2-7.66,38.2,38.2,0,0,0,7-9.44c3.19-7.22,5.44-15.15,8.91-22.5,1.75-3.67,3.17-7.52,5.18-11.06s3.83-7.18,5.84-10.71l6.5-10.31c1.08-1.72,2.12-3.37,3.08-5.15a16.71,16.71,0,0,0,1.68-5.4,10.67,10.67,0,0,0-.78-5.47,14.86,14.86,0,0,0-3.46-4.5,38.64,38.64,0,0,0-10.05-6.21c-7.3-3.3-15-5.72-22.69-8.37s-15.39-5.33-22.41-9.66c-3.45-2.18-6.8-4.86-8.93-8.54-1-1.94-1.67-3.79-2.42-5.68s-1.56-3.69-2.48-5.48a82.09,82.09,0,0,0-13.35-19.93c-5.5-5.77-12.21-10.65-20-12.67a30,30,0,0,0-11.79-1l-3,.46-2.75,1c-1.89.53-3.55,1.77-5.34,2.63-6.81,4.17-13,9.77-21,12.26l.28-.25a23.29,23.29,0,0,1-2.49,4.6,7.52,7.52,0,0,1-4.31,3.17,6.64,6.64,0,0,1-5.17-1,16.06,16.06,0,0,1-3.64-3.77c-1-1.4-1.93-2.85-2.91-4.25s-2-2.8-2.87-4.27-1.76-3-2.58-4.48a33.45,33.45,0,0,1-2-4.81,23.09,23.09,0,0,1-1.07-5.08l-.07-2.61a25.14,25.14,0,0,1,.34-2.59c.17-1.8,1-3.3,1.41-5a44.27,44.27,0,0,1,1.73-4.84l4.11-9.44c1.49-3.09,2.44-6.37,3.65-9.56l.1.27c-3.51-2.39-7.49-4.12-10.92-6.78a8,8,0,0,1-2.2-2.42,14.43,14.43,0,0,1-.59-3.21,33.67,33.67,0,0,1-.37-6.43c-.08-2.16.18-4.28.26-6.43s.18-4.25.43-6.42a5.69,5.69,0,0,1,4-4.76l6-2.17,12-4.47c2-.77,4.06-1.38,6.09-2a63.85,63.85,0,0,1,6.17-1.79,52,52,0,0,1,6.27-1.4,54.58,54.58,0,0,1,6.36-.86c2.14,0,4.29-.23,6.42-.12Zm0,0-6.36-.82c-2.13-.11-4.28.1-6.42.14a54.32,54.32,0,0,0-6.34.89,52,52,0,0,0-6.26,1.43,60.19,60.19,0,0,0-6.15,1.82c-2,.67-4.08,1.3-6.07,2.07l-12,4.53-6,2.2a5.39,5.39,0,0,0-3.76,4.56c-.22,2.07-.26,4.26-.39,6.38s-.32,4.28-.23,6.41a32.47,32.47,0,0,0,.4,6.37,14.52,14.52,0,0,0,.56,3.08,7.56,7.56,0,0,0,2.1,2.27c3.38,2.59,7.35,4.3,10.93,6.71a.26.26,0,0,1,.1.28c-1.21,3.21-2.16,6.54-3.63,9.63l-4,9.42a42.67,42.67,0,0,0-1.7,4.84c-.43,1.63-1.25,3.25-1.37,4.89-.09.84-.3,1.67-.31,2.51L108,235a22,22,0,0,0,1.06,4.93,33,33,0,0,0,1.93,4.69c.83,1.49,1.61,3,2.57,4.41s1.89,2.83,2.88,4.24,1.9,2.86,2.91,4.21a15.21,15.21,0,0,0,3.46,3.56,5.66,5.66,0,0,0,4.61.84,6.67,6.67,0,0,0,3.72-2.85,22.06,22.06,0,0,0,2.37-4.42.45.45,0,0,1,.28-.26c7.68-2.44,13.82-8,20.72-12.26,1.85-.91,3.48-2.15,5.51-2.76l2.94-1.07,3-.48a31,31,0,0,1,12.24.93c8,2,14.93,7,20.57,12.9a83.05,83.05,0,0,1,13.67,20.19c.94,1.8,1.72,3.7,2.55,5.56s1.49,3.81,2.36,5.49c1.95,3.35,5.13,5.9,8.48,8,6.82,4.16,14.52,6.78,22.14,9.4s15.42,5,22.89,8.32a40.39,40.39,0,0,1,10.54,6.47,16.61,16.61,0,0,1,3.89,5.05,12.48,12.48,0,0,1,1,6.4,18.76,18.76,0,0,1-1.87,6.11c-.95,1.79-2.06,3.58-3.13,5.28l-6.4,10.26c-2,3.51-3.81,7.09-5.73,10.64s-3.35,7.3-5.06,10.93c-3.42,7.33-5.55,15.07-8.86,22.68a40.29,40.29,0,0,1-7.33,10.06,92.39,92.39,0,0,1-9.4,7.91c-6.39,4.88-13.36,9.5-14.56,17.6-2.05,8.27-7.7,14.83-12.52,21.11A55.74,55.74,0,0,0,208,454l-1.52,2.46-1.24,2.77-.63,1.38c-.07.19-.28.56-.24.6l-.18.66a12,12,0,0,0-.45,2.68,15.62,15.62,0,0,0,1,5.44c2.71,7.25,8.84,13.05,12,21.05a1.36,1.36,0,0,1-.76,1.77,1.33,1.33,0,0,1-1.09,0l-.05,0L203,487.07c-3.92-1.92-7.9-3.76-11.76-5.87a124.49,124.49,0,0,1-11.4-6.7c-1.81-1.27-3.66-2.47-5.43-3.82l-5.18-4.28c-3.13-3-6.29-6.22-9.31-9.27s-5.94-6.29-9.26-9.09-6.41-5.84-9.75-8.66l-10-8.52c-3.28-2.91-6.55-5.67-9.85-8.71a41.49,41.49,0,0,1-8.24-10.75c-4.35-8-6.16-16.9-7.5-25.54l-1.88-12.93a62.63,62.63,0,0,0-2.91-12.38,45.15,45.15,0,0,0-6-11A81.08,81.08,0,0,0,86,340.12a1.88,1.88,0,0,1-.06-2.66l0,0c3.94-4,8.17-7.57,11.72-11.54s6.54-8.45,6.12-13.26a15,15,0,0,0-2.2-6.91,19.88,19.88,0,0,0-2.15-3.23l-1.26-1.64A10.49,10.49,0,0,0,97,299.72c-4.13-3.38-8.75-6.66-12.87-10.53a35.84,35.84,0,0,1-5.79-6.57,10.58,10.58,0,0,1-1.8-4.72,6.13,6.13,0,0,1,2.32-5.31c2.95-2.27,5.89-2.48,8.59-3.09S93,268.45,95.72,268s5.21-1,7.83-1.51a40.19,40.19,0,0,0,3.91-1.25l2-.67,1-.34c.07,0,.54-.17.28-.1l.22-.14a3.12,3.12,0,0,0,1.24-2.11,3.63,3.63,0,0,0,0-.56c-.07-.13.14-.05-.08-.47l-.2-.48,0-.06c0-.06.2.38.08.17l-.06-.12-.12-.23-.5-.92-4-7.37c-2.82-4.83-4.74-10.06-7.11-15.09-2.21-5.1-4-10.36-6.06-15.53l-2.67-7.83c-.84-2.67-1.9-5-2.57-8.1-1.1-5.82-.53-11.38-1.1-16.66a19.35,19.35,0,0,0-2-7.28,11.29,11.29,0,0,0-5.16-4.8A28.06,28.06,0,0,0,73,175a13.82,13.82,0,0,1-8.25-4c-4.37-4.55-5.61-10.41-7.23-15.57-.39-1.29-.8-2.63-1.25-3.8a17.24,17.24,0,0,0-.75-1.86,4.24,4.24,0,0,0-.79-1.32c-1.4-1.5-4.08-2.23-6.7-3l.19,0-3.63-.12h-.13L43,145.35a12,12,0,0,1-1.5-.34,9.22,9.22,0,0,1-1.45-.63,12.22,12.22,0,0,1-1.31-1,1.34,1.34,0,0,1-.35-1.75l.05-.09L46,128.42l8.42-12.67,9.17-12.13,9.89-11.54c3.53-3.63,7-7.33,10.58-10.91,3.75-3.41,7.43-6.91,11.23-10.25,4-3.17,7.82-6.45,11.83-9.53s8.19-6,12.39-8.8c4.3-2.66,8.53-5.47,12.9-8s8.85-4.94,13.37-7.21c4.6-2.11,9.13-4.39,13.79-6.37,4.72-1.82,9.38-3.81,14.15-5.5,4.82-1.53,9.6-3.21,14.46-4.62,4.91-1.23,9.79-2.58,14.72-3.72l14.92-2.8,15.06-1.89a1,1,0,0,1,1.05.82.92.92,0,0,1-.15.63v0a119.57,119.57,0,0,1-7.2,10.32,34,34,0,0,1-9.75,8.21c-3.8,2.09-8.11,2.94-12.23,3.55-2.07.21-4.12.47-6.12.8l-2.83.68c-.9.42-2,.86-2.74,1.25a51,51,0,0,0-9.53,7.69c-2.79,2.91-5.21,6.41-5.8,10.28s1.47,7.69,4.51,10.23,7,4.06,10.88,5.37,8.06,2.27,11.74,4.55,6.76,5,10.1,7.41A23.42,23.42,0,0,0,226,89c4,1.06,8.14,1.11,12.24,1.28,8.24-.15,16.37-2.2,24.59-3.57S279.73,85,287.7,87.89A13.41,13.41,0,0,1,293,91.54a13.62,13.62,0,0,1,2.78,5.76c.91,4.19.34,8.48-.53,12.55a88.19,88.19,0,0,1-3.77,12,41,41,0,0,1-6,11,18.14,18.14,0,0,1-10.61,6.51,45.36,45.36,0,0,1-12.53.2,108.13,108.13,0,0,0-24.84-.55,217.67,217.67,0,0,0-24.61,3.93l-6,1.71c-1.92.78-3.91,1.47-5.77,2.32a12.62,12.62,0,0,0-4.77,3.81,27.6,27.6,0,0,0-2.66,5.59c-.75,2-1.86,3.75-2.78,5.59s-1.57,3.84-2.36,5.77a17.13,17.13,0,0,1-3.07,5.42,3,3,0,0,1-2.94.75,9.64,9.64,0,0,1-1.36-.79L180,172c-2.77-3.16-4.47-7-6.36-10.71S169.08,154,164.92,152.9Z" transform="translate(-8.6 -8.1)" style="fill:#098137"/><path d="M495.67,258.39c-6.53-2.35-16.68-11.46-23.14-4.11-1,1.15-3.61,2.88-5.18,1.76-.53.26-1,.54-1.57.77a4.87,4.87,0,0,1-.82.23c-.11.31-.19.67-.31,1-.88,2.12-3.68,4-5.87,2.59-6.08-4-11.06-8.67-16.58-13.32-6.46-5.44-14.5,7.18-18.19,11.26a3.91,3.91,0,0,1-3.69,1.1c-10.14-3.1-30.57-12.33-33.32,3.7-1.17,6.79-2.88,9.34-7.68,14.29-5.07,5.23-13.5,9.21-19.66,13.16-8.21,5.28-2,32.75,9.54,29.05,11-3.52,22.47-3.25,31.09,5.09,7.79,7.52,22.16,20,22.72,31.76.16,3.35-.56,6.72-3,9.23-8.09,8.19-14.1,16.46-10.55,28.55,4.61,15.69,5.87,19-.63,34.84-5.33,13-11.75,22.52-23,31.22-7.38,5.73-14.76,11.09-20.37,17.33,80.25-40.22,135.44-123,135.82-218.81A12.42,12.42,0,0,1,495.67,258.39Z" transform="translate(-8.6 -8.1)" style="fill:#72bb32"/><path d="M495.67,258.39c-4.86-1.91-9.13-5.21-14.23-6.48a10.27,10.27,0,0,0-3.86-.29,6.07,6.07,0,0,0-1.87.48A7,7,0,0,0,474,253c-1,.78-1.82,1.86-2.95,2.57s-2.54,1.27-3.78.53h.11a11.18,11.18,0,0,1-2.4,1l.07-.06a5.33,5.33,0,0,1-4.22,4.1,3.64,3.64,0,0,1-2.87-1l-2.45-1.83-4.89-3.67c-1.6-1.26-3.12-2.62-4.69-3.93s-3.05-2.75-4.72-3.84a5.37,5.37,0,0,0-5.57.14c-3.53,1.95-6.13,5.22-8.69,8.34l-1.92,2.39a5.46,5.46,0,0,1-2.44,2,4.35,4.35,0,0,1-3.18-.08l-2.91-.95a103.57,103.57,0,0,0-11.7-3.33c-3.91-.74-8.14-1.29-11.74.27a9.34,9.34,0,0,0-2.43,1.49,9,9,0,0,0-1.69,2.29l-.64,1.3c-.16.46-.25.95-.38,1.41-.25.92-.49,2-.7,3s-.41,2-.7,3l-1.23,3a26.19,26.19,0,0,1-3.64,5.08c-.73.78-1.31,1.54-2.15,2.32l-2.31,2a36.18,36.18,0,0,1-5,3.69c-3.44,2.34-7,4.27-10.43,6.45a7.58,7.58,0,0,0-3.77,3.84,15.77,15.77,0,0,0-1,5.59,27.52,27.52,0,0,0,2.24,11.44c1.5,3.44,4,7.09,7.36,7.34,1.49.14,3.51-.6,5.48-1.14a44.13,44.13,0,0,1,6.23-1.13A30.9,30.9,0,0,1,391,317.66c4.21,1.1,7.81,3.86,10.94,6.62,3,2.78,6,5.55,8.87,8.5,5.63,5.92,11.54,12.31,13.65,21.09a18.69,18.69,0,0,1,.36,3.43,14.9,14.9,0,0,1-.27,3.26,12.45,12.45,0,0,1-3.07,6.4,66.77,66.77,0,0,0-7.56,9.13,23.06,23.06,0,0,0-3.55,10.54l.08,2.79a21,21,0,0,0,.5,2.77,57.13,57.13,0,0,0,1.55,5.76c1.1,3.94,2.38,7.94,2.67,12.34A31.75,31.75,0,0,1,413.27,423c-.58,2.06-1.45,3.91-2.17,5.86-.81,2.14-1.72,3.77-2.57,5.68s-1.63,3.71-2.72,5.51l-3.35,5.38a30.15,30.15,0,0,1-3.78,5c-1.36,1.59-2.69,3.23-4.09,4.78-3.16,2.71-6.21,5.7-9.46,8.14-6.44,5-13,9.78-18.34,15.62l-2.12-2.78,14.78-8,14.25-8.95,13.61-9.9c4.3-3.6,8.68-7.13,12.92-10.81,4-3.9,8.19-7.69,12.15-11.68,3.76-4.17,7.67-8.22,11.32-12.49,3.48-4.42,7.13-8.71,10.46-13.24,3.16-4.65,6.52-9.17,9.52-13.94,2.83-4.86,5.91-9.59,8.55-14.57,2.49-5.05,5.24-10,7.52-15.13s4.57-10.31,6.45-15.63,3.76-10.64,5.28-16.07c1.37-5.47,3-10.88,4.16-16.4,1-5.55,2.19-11.08,3-16.65.62-5.61,1.36-11.21,1.87-16.82l.73-16.93,0,0c-.94,0-1.89,0-2.84,0Zm0,0,2.77.63c.95,0,1.89,0,2.84,0a0,0,0,0,1,0,0h0L500.69,276c-.49,5.63-1.18,11.24-1.77,16.86-.79,5.59-1.95,11.12-2.91,16.69-1.13,5.54-2.72,11-4.05,16.46-1.49,5.45-3.47,10.76-5.19,16.14s-4.17,10.51-6.23,15.77-4.87,10.21-7.29,15.33-5.58,9.84-8.34,14.79c-2.93,4.84-6.24,9.45-9.34,14.19-3.28,4.62-6.87,9-10.3,13.52-3.61,4.37-7.48,8.52-11.21,12.8-3.93,4.09-8.05,8-12.07,12-4.22,3.79-8.57,7.43-12.86,11.16l-13.61,10.25-14.31,9.28-14.95,8.23a1.77,1.77,0,0,1-2.17-2.74l0,0c5.67-6.26,12.33-11.16,18.71-16.19,3.26-2.48,6-5.26,9-7.86,1.32-1.48,2.54-3,3.82-4.53a27.67,27.67,0,0,0,3.51-4.74l3.09-5c1-1.69,1.75-3.65,2.65-5.47s1.83-3.78,2.43-5.47c.68-1.87,1.54-3.73,2-5.61a27.69,27.69,0,0,0,1.77-11.23c-.2-3.76-1.37-7.62-2.44-11.52s-2.46-8.12-2.19-12.6a26.62,26.62,0,0,1,4.2-12.34,69.7,69.7,0,0,1,8.05-9.64A9,9,0,0,0,421,360a11.37,11.37,0,0,0,.25-2.82,15.55,15.55,0,0,0-.27-2.63c-1.63-7.33-7.15-13.68-12.57-19.45-2.76-2.92-5.7-5.72-8.63-8.57-2.9-2.61-5.91-5-9.67-6.09a27.94,27.94,0,0,0-11.49-1.2,39,39,0,0,0-5.79,1l-3,.78a10,10,0,0,1-3.47.33c-2.52-.15-4.49-1.79-5.94-3.39a19.59,19.59,0,0,1-3.31-5.57A30,30,0,0,1,354.89,300a17.77,17.77,0,0,1,1.31-6.32,8.33,8.33,0,0,1,2-2.83l.57-.51.41-.34.33-.2,1.33-.78c3.49-2.14,7.14-4,10.46-6.22a35,35,0,0,0,4.9-3.49l2.34-2c.67-.58,1.36-1.43,2-2.13A19.34,19.34,0,0,0,386,264.81c.23-1,.46-1.92.75-3,.15-.51.26-1,.44-1.53l.73-1.43a8.53,8.53,0,0,1,4.74-4.2c4-1.63,8.35-.93,12.32-.12a101.81,101.81,0,0,1,11.73,3.56l2.9,1a3.76,3.76,0,0,0,2.77.12c1.8-.7,2.78-2.7,4.15-4.18,2.59-3.11,5.22-6.4,8.9-8.41a5.83,5.83,0,0,1,6-.08c1.74,1.16,3.14,2.6,4.73,3.9s3.06,2.68,4.65,3.95l4.87,3.7,2.43,1.85a3.35,3.35,0,0,0,2.67,1,5.05,5.05,0,0,0,4-3.91.1.1,0,0,1,.08-.07,10.87,10.87,0,0,0,2.37-1,.11.11,0,0,1,.11,0c1.09.67,2.52.18,3.56-.51a36.86,36.86,0,0,0,2.95-2.55,7.7,7.7,0,0,1,1.74-.94,7,7,0,0,1,1.91-.48,10.71,10.71,0,0,1,3.9.33C486.59,253.12,490.82,256.45,495.67,258.39Z" transform="translate(-8.6 -8.1)" style="fill:#098137"/><path d="M398.68,57.56A44.56,44.56,0,0,0,395.13,61c-12.81,13.92,6.14,27.45,13.32,38.29,3.83,5.79,10.78,22.25,18.31,24,6.81,1.59,22.38,3.48,18.85,14.62-4.46,14.14-16.4,23.93-21.86,37.47a1.48,1.48,0,0,1-.08.13c-.79,2.08-1.52,4.18-2.11,6.3-.83,3-1.79,6,2.93,5.75A25.17,25.17,0,0,0,435,184.32c5-2.65,9.58-5.95,14.54-8.62a3.75,3.75,0,0,1,3-.29c1.56-.69,3.16-.42,3.66,1.71,2.38,10.08,17.17,5.43,18.11,16.22.28,3.13-.29,6.33-.42,9.22a75.7,75.7,0,0,0,3.13,8,12.07,12.07,0,0,0,3.45,1.57l.47.11c6-1.69,13.07-2.34,16.68,3.32a19.3,19.3,0,0,1,1.45,2.73A245.73,245.73,0,0,0,398.68,57.56Z" transform="translate(-8.6 -8.1)" style="fill:#72bb32"/><path d="M398.68,57.56c-2.91,2.85-6,5.9-7,9.86s-.12,8.12,1.91,11.62c4,7.16,10.36,12.57,15.31,19.37,2.4,3.5,4.24,7.19,6.36,10.7a54,54,0,0,0,7,9.85,11,11,0,0,0,4.56,3.07c1.86.49,4,.82,6,1.3,4,1,8.35,2,11.88,5.15a8.72,8.72,0,0,1,2.88,6.5,12.43,12.43,0,0,1-.58,3.56l-1.09,2.9A60.71,60.71,0,0,1,440,152.66c-2.3,3.5-4.7,6.88-7,10.23a72.48,72.48,0,0,0-6.2,10.37l-1.27,2.7c-.33.71-.65,1.89-1,2.81a48.52,48.52,0,0,0-1.69,5.68c-.17.93,0,1.2,0,1.1-.09.06.34.08.55.18l1.07,0a29.19,29.19,0,0,0,3-.44,22.26,22.26,0,0,0,2.63-.79c3.59-1.27,7-3.63,10.59-5.7l5.34-3.2,2.67-1.6.89-.38a8.26,8.26,0,0,1,1.28-.29,5.76,5.76,0,0,1,2.39.26l-1.43,0a4.7,4.7,0,0,1,4.05-.08,4.86,4.86,0,0,1,2.28,3.11,7,7,0,0,0,.85,2,5.92,5.92,0,0,0,1.15,1.39c2,1.75,5.15,2.52,8.43,3.79a14.11,14.11,0,0,1,4.9,3,8.86,8.86,0,0,1,1.86,2.54,9.78,9.78,0,0,1,.89,2.93l.13.74a6.19,6.19,0,0,1,0,.81v1.25l0,2.49c-.07,1.67-.26,3.38-.38,5.06l-.1-.72,3,7.77-.68-.8a15,15,0,0,0,1.54.81,18.65,18.65,0,0,0,1.79.61H480.4a36.11,36.11,0,0,1,5.57-1.09,17.91,17.91,0,0,1,2.94-.11,12,12,0,0,1,3,.37,12.47,12.47,0,0,1,3,1.05,6.47,6.47,0,0,1,1.35.87,15.67,15.67,0,0,1,1.28,1l1,1.24.5.63.12.15c.06.08,0-.06.14.2l0,.07.16.3,1.25,2.36-3.56,1.22L495,206.71,492.19,195l-3.37-11.58c-1.25-3.82-2.63-7.6-3.94-11.41s-3-7.46-4.5-11.2-3.33-7.32-5-11-3.69-7.16-5.53-10.74-4-7-6.05-10.46-4.38-6.76-6.57-10.15-4.71-6.55-7.06-9.82l-7.54-9.47L434.69,90l-8.39-8.74-8.83-8.33L408.26,65Zm0,0,9.9,7.08,9.5,7.61,9.12,8.08,8.72,8.53,8.28,9,7.79,9.41c2.44,3.26,4.93,6.47,7.32,9.78s4.62,6.71,6.83,10.13,4.29,6.93,6.33,10.46,3.94,7.14,5.8,10.77,3.6,7.33,5.26,11,3.16,7.53,4.64,11.33,2.78,7.68,4.06,11.55l3.5,11.74,2.91,11.89L501,218a1.9,1.9,0,0,1-3.54,1.26l0,0-1.27-2.36-.15-.29-.05-.08c.13.23,0,0,0,.07l-.08-.1-.35-.41-.68-.83c-.25-.24-.56-.41-.83-.63s-.52-.48-.89-.57a8.11,8.11,0,0,0-2.05-.69,8.48,8.48,0,0,0-2.28-.27,15,15,0,0,0-2.4.11,32.16,32.16,0,0,0-4.91,1,2.14,2.14,0,0,1-.94,0l-.14,0a20.87,20.87,0,0,1-2.26-.77,17.72,17.72,0,0,1-2.24-1.17,1.44,1.44,0,0,1-.65-.73l0-.07L472,203.2a1.58,1.58,0,0,1-.11-.67v-.06c.11-1.63.27-3.23.35-4.87l0-2.5,0-1.24c0-.12,0-.61,0-.43l-.09-.49a5.75,5.75,0,0,0-.52-1.82,4.84,4.84,0,0,0-1.06-1.45,10.1,10.1,0,0,0-3.58-2.13c-2.84-1.2-6.43-1.91-9.55-4.56a10,10,0,0,1-2-2.46,10.14,10.14,0,0,1-1.08-2.58c-.31-1-.36-.86-.36-.92s-.27-.08-.76.15a1.7,1.7,0,0,1-1.17.11l-.26-.06a2.38,2.38,0,0,0-.67-.07c-.07,0-.11,0-.23,0a4.79,4.79,0,0,1-.54.21l-2.65,1.56-5.31,3.13-5.34,3.13a33.35,33.35,0,0,1-5.88,2.78,25,25,0,0,1-3.31,1c-1.12.26-2.07.28-3.12.44a16.17,16.17,0,0,1-2-.05,7.83,7.83,0,0,1-1.12-.3,2.65,2.65,0,0,1-1.16-.62,3.64,3.64,0,0,1-1.4-2.45,6.57,6.57,0,0,1,.08-2.12,49.07,49.07,0,0,1,1.86-6.17c.36-1,.57-1.86,1.07-3l1.38-2.9a76.38,76.38,0,0,1,6.55-10.81c2.39-3.41,4.88-6.69,7.16-10a56.8,56.8,0,0,0,5.81-10.52l1.15-2.88a9.69,9.69,0,0,0,.43-2.51,5.83,5.83,0,0,0-1.9-4.48c-2.62-2.5-6.66-3.7-10.54-4.68-2-.51-4-.84-6.08-1.44a13.26,13.26,0,0,1-5.55-3.81,55.79,55.79,0,0,1-7.14-10.41c-2.07-3.6-3.79-7.39-6-10.77-4.55-6.69-10.85-12.42-14.74-19.9-2-3.65-2.94-8.16-1.57-12.2S395.65,60.31,398.68,57.56Z" transform="translate(-8.6 -8.1)" style="fill:#098137"/><path d="M411.55,143.4A45.24,45.24,0,0,0,405.7,130c-.24-.65-.51-1.28-.69-1.95a35.16,35.16,0,0,0-3.94-10.14c-3.1-4.82-10.07-2.2-12.05,2.18-3.34,7.34-6.53,16.22-6.66,24.28-.1,5.78-.38,13.1,4.79,16.91,4.86,3.59,13.13.08,17.69-2.18S412.8,148.28,411.55,143.4Z" transform="translate(-8.6 -8.1)" style="fill:#72bb32"/><path d="M411.55,143.4c-.82-2.31-1.62-4.63-2.46-6.93l-3.61-6.36,0-.05c-.89-2.11-1.45-4.31-2.31-6.35a21.74,21.74,0,0,0-3.08-5.62c-.4-.35-.78-.9-1.19-1.09s-.74-.31-1.14-.44l-1.36-.12-1.39.26a7.36,7.36,0,0,0-4.23,3.51,21.37,21.37,0,0,0-1.17,2.94l-1.23,3.15-2,6.23c-.46,2.12-1,4.24-1.41,6.35-.2,2.14-.56,4.2-.65,6.41a54,54,0,0,0,.05,6.5,14.52,14.52,0,0,0,1.52,5.8,7.28,7.28,0,0,0,4.32,3.73c1.6.64,4,.43,6.06.12a36.53,36.53,0,0,0,6.35-1.87A11.3,11.3,0,0,0,408,156a18.33,18.33,0,0,0,3.08-5.91A14.4,14.4,0,0,0,411.55,143.4Zm0,0a14.57,14.57,0,0,1-.35,6.69,21.6,21.6,0,0,1-2.84,6.15,13.42,13.42,0,0,1-5.35,4.25,38.38,38.38,0,0,1-6.38,2.59c-2.3.51-4.52,1.15-7.28.43a9.94,9.94,0,0,1-6-4.33,15.86,15.86,0,0,1-2.51-7,44.05,44.05,0,0,1-.42-7c.05-2.28.38-4.69.57-7,.45-2.29,1.09-4.53,1.64-6.8.75-2.19,1.58-4.38,2.42-6.52a62.65,62.65,0,0,1,3.06-6.25,10.06,10.06,0,0,1,6.34-4.31l2-.16c.66.08,1.33.24,2,.37a12.53,12.53,0,0,1,1.88,1.06,8.55,8.55,0,0,1,1.16,1.29,22.42,22.42,0,0,1,2.82,6.46c.69,2.18,1,4.45,1.74,6.53l0-.06,3.31,6.6C410,138.74,410.78,141.07,411.55,143.4Z" transform="translate(-8.6 -8.1)" style="fill:#098137"/><path d="M149.45,196.58c-4.15-4.55-11.42-5.73-15.65-.66a1.93,1.93,0,0,0-1.13,1.37c0,.17,0,.37-.07.56a7.51,7.51,0,0,0-.35,4.27c-.12,3.83.46,7.75,3.34,10.35,4,3.6,11.75,1.19,15-2.25C154.14,206.41,152.62,200.06,149.45,196.58Z" transform="translate(-8.6 -8.1)" style="fill:#72bb32"/><path d="M149.45,196.58l-1.67-1.46c-.62-.4-1.26-.77-1.88-1.15s-1.39-.48-2.08-.72-1.44-.19-2.15-.29c-.72.06-1.43.15-2.12.25-.66.25-1.33.46-1.94.74s-1.14.75-1.65,1.17l-1.32,1.5-.37.29c-.15.14-.33.3-.34.44s0,.09,0,.1,0,.38,0,.57l-.09.33c0,.6-.11,1.16-.2,1.72l.31,1.74,0,.25v.11a20.48,20.48,0,0,0,.67,4.77,9,9,0,0,0,2,3.71l.17.19.09.1,0,.05-.24-.18h0l0,0,0,0,.55.37a12.15,12.15,0,0,0,1.08.7c.59,0,.88.42,1.71.42l1.09.15c.39,0,.77-.06,1.16-.06a12.13,12.13,0,0,0,2.36-.31,12.69,12.69,0,0,0,4.46-1.93,7,7,0,0,0,.9-.68l.88-1a7.69,7.69,0,0,0,1-2.16l.3-1.24,0-1.29a12.82,12.82,0,0,0-.36-2.59A13.14,13.14,0,0,0,149.45,196.58Zm0,0a13.39,13.39,0,0,1,1.57,2.16,15.64,15.64,0,0,1,1.14,2.41,12.27,12.27,0,0,1,.66,2.62,10.17,10.17,0,0,1,.06,2.76,8.48,8.48,0,0,1-.8,2.79l-.68,1.16a6.88,6.88,0,0,1-1,1.15,15.31,15.31,0,0,1-4.78,3.2,14.86,14.86,0,0,1-2.81.9,11,11,0,0,1-6.5-.5,11.86,11.86,0,0,1-1.18-.7l-.56-.35,0,0-.28-.21-.07-.08-.14-.14-.29-.29a11.15,11.15,0,0,1-2.93-5.56,19.11,19.11,0,0,1-.27-5.81l0,.36,0-2.58c.24-.86.5-1.7.78-2.5l-.09.32.13-.62a2.8,2.8,0,0,1,.46-1,3.4,3.4,0,0,1,1.44-1.13l-.38.29,1.93-1.53c.7-.41,1.48-.7,2.2-1s1.57-.3,2.33-.44l2.31.13c.75.19,1.49.34,2.21.55l2,.94c.63.41,1.26.8,1.87,1.23Z" transform="translate(-8.6 -8.1)" style="fill:#098137"/><g style="opacity:0.4;mix-blend-mode:screen"><path d="M108.9,165.14c16.77-5.74,37.89-16.45,56-12.24,6.66,1.55,9,9.53,12,14.58,9.1,15.53,10.95-.91,14.73-7.19,3.52-5.83,2.54-10.34,9.79-13.7s15-4.82,22.89-6.08c10.73-1.73,20.48-3.1,31.36-2,17,1.77,27.7,3.56,35.38-16.76,3.71-9.83,10.77-29.82-5.51-34.17-11.27-3-20.82-.9-32,1.34s-20.41,2.89-31.41-.16c-8.31-2.3-13.72-10.63-22.27-13.54-6.12-2.08-14.87-4-19.54-8.92-10.14-10.66,3.36-22.73,12.38-28.43,3.09-1.94,8.42-2.36,11.95-2.76,13.18-1.48,19.45-8,25.88-17.9.83-1.29,1.65-2.56,2.48-3.83a245.79,245.79,0,0,0-36.75,6.37c-2,5.64-4.44,11-9.65,14.87-9.93,7.3-49.4,24.42-28.33,37.66,21.33,13.41,19.22,16.6,2.76,31.5-10.28,9.31-16.75,22.21-28.31,30.1-3.09,2.11-9.29,2.59-12.88,2.26C107,135,97,136.62,86.22,144.75c-3.59,2.7-9.37,5.95-13.92,3.12C61.26,141,56,129.2,46.85,130q-3.7,6.08-7.09,12.35a6.58,6.58,0,0,0,4.7,1.62,16.63,16.63,0,0,1,4,.12c2.64.74,6.86,1.71,8.23,4.49,4.15,8.44,4.15,23.74,17.12,24.92,3.46.31,6.9.82,9.8,2.93,9.19,6.68,4.42,21.35,7.54,30.78,6,18.07,12.61,36,22.41,52.42,1.25,2.08.06,5.38-2.16,6.37-.69.3-1.39.55-2.08.81,7.49,2.91,14,1.58,24-4.08,6.85-3.88,14.76-9.3,22.78-10.45,16.71-2.41,26.51,14.9,33.92,27.46C196.57,290.8,186.6,302,178.69,309c-13.94,12.39,15.64,38.12,16,53.32.09,3.65-1.09,8.32-4.15,10.74-11.7,9.23-10.15,17.88-10.85,30.61-.37,6.78-6.48,13.43-13,14.45-7.09,1.11-11.46-12.4-13.33-17-2.58-6.28-4.72-13.61-9-19-7.77-9.76-16.42,7.77-21.15,13.28-1.22,1.42-3.43,3-5.28,1.57a52.65,52.65,0,0,0-9.84-5.63c2.08,11.19,5.61,21.78,14.76,30.16,14,12.82,28.58,23.6,41.37,37.78,14.61,16.19,32.73,23,51.19,32.16-3.68-10.12-16.2-19.94-12.22-30.91,4.84-13.29,17.26-20.16,20.07-34.77,1.21-6.22,7.37-10.95,12-14.42,8.8-6.63,16.8-12.25,20.67-23.54,6.91-20.23,14-34.8,25.74-52.35,21.78-32.64-56.65-29.62-66-54.38-7.36-19.62-23.49-44-48-43-13,.5-21.39,13-33.82,16.73-1.51,3.62-3.42,6.65-6.2,7.49-5.56,1.65-8.85-4.92-11.52-8.67-5.15-7.21-10.38-15.63-8.1-24.89,2.38-9.68,7.88-18.05,10.64-27.59-4-2.84-12.6-6.41-13.32-9.75-1.51-7-.39-14.2-.14-21.26A5.41,5.41,0,0,1,108.9,165.14ZM206,97a16.85,16.85,0,0,1,2.47-.76c7.74-1.63,15.92,3.72,22.28,7.33,2,1.15,1,4,.14,5.5-4.77,8.2-15.91,14.33-24.14,18.28-6,2.88-18.53,9.3-24.95,3.93C169.48,121,191.68,92.1,206,97Z" transform="translate(-8.6 -8.1)" style="fill:#b8d424"/><path d="M495.67,258.39c-6.53-2.35-16.68-11.46-23.14-4.11-1,1.15-3.61,2.88-5.18,1.76-.53.26-1,.54-1.57.77a4.87,4.87,0,0,1-.82.23c-.11.31-.19.67-.31,1-.88,2.12-3.68,4-5.87,2.59-6.08-4-11.06-8.67-16.58-13.32a5.16,5.16,0,0,0-3.32-1.3c.57,3.31.94,6.66,1.36,10.21,1.85,15.68,10.47,13.52,22.16,17.62,7.56,2.65,6.08,12.47,5.05,18.36-3.84,22-9,41.43-34,44.44-1.76.2-2.75-1.46-2.88-3-1-11.2,3.93-22.34,2.7-33.39-2-18.13-17.47-.36-23.36,1.45-7.25,2.22-12.29,1.56-19.26-1.54-14.93-6.63-23.73,3.22-30.68,15.26,2.31,3.51,5.47,5.6,9.2,4.4,11-3.52,22.47-3.25,31.09,5.09,7.79,7.52,22.16,20,22.72,31.76.16,3.35-.56,6.72-3,9.23-8.09,8.19-14.1,16.46-10.55,28.55,4.61,15.69,5.87,19-.63,34.84-5.33,13-11.75,22.52-23,31.22-7.38,5.73-14.76,11.09-20.37,17.33,80.25-40.22,135.44-123,135.82-218.81A12.42,12.42,0,0,1,495.67,258.39Z" transform="translate(-8.6 -8.1)" style="fill:#b8d424"/><path d="M417.6,72.43c.49,4.68.82,9.5,1,14.63.83,22,25,12.83,32.91,28.9,4.92,10,10.14,33.56,4.7,44.31-2.94,5.81-5,8.69-11,11.61-7.91,3.89-11.92,8.83-15.68,14.74a31,31,0,0,0,5.41-2.3c5-2.65,9.58-5.95,14.54-8.62a3.75,3.75,0,0,1,3-.29c1.56-.69,3.16-.42,3.66,1.71,2.38,10.08,17.17,5.43,18.11,16.22.28,3.13-.29,6.33-.42,9.22a75.7,75.7,0,0,0,3.13,8,12.07,12.07,0,0,0,3.45,1.57l.47.11c6-1.69,13.07-2.34,16.68,3.32a19.3,19.3,0,0,1,1.45,2.73A245.45,245.45,0,0,0,417.6,72.43Z" transform="translate(-8.6 -8.1)" style="fill:#b8d424"/><path d="M411.55,143.4A45.24,45.24,0,0,0,405.7,130c-.24-.65-.51-1.28-.69-1.95a35.16,35.16,0,0,0-3.94-10.14c-3.1-4.82-10.07-2.2-12.05,2.18-3.34,7.34-6.53,16.22-6.66,24.28-.1,5.78-.38,13.1,4.79,16.91,4.86,3.59,13.13.08,17.69-2.18S412.8,148.28,411.55,143.4Z" transform="translate(-8.6 -8.1)" style="fill:#b8d424"/><path d="M149.45,196.58c-4.15-4.55-11.42-5.73-15.65-.66a1.93,1.93,0,0,0-1.13,1.37c0,.17,0,.37-.07.56a7.51,7.51,0,0,0-.35,4.27c-.12,3.83.46,7.75,3.34,10.35,4,3.6,11.75,1.19,15-2.25C154.14,206.41,152.62,200.06,149.45,196.58Z" transform="translate(-8.6 -8.1)" style="fill:#b8d424"/></g><g style="mask:url(#mask-3)"><g style="mask:url(#mask-3)"><path d="M374.41,62c-26.24-23.38-34.21-36-88.1-45.23-60.91-10.47-130,8.49-179.5,47.08A240,240,0,0,0,30.27,167.12c-7.41,19.43-12.72,41.51-14.15,62.3C13.3,270.19,22.61,311.28,36,349.55c9.16,26.12,25.09,48.32,49.49,61.8,6.36,3.51,13.67-6,11.85-11.77-10-31.61,5.07-61.29,16.18-90.43,6.83-17.91,15.2-36,9.69-55.42-5.81-20.5-33.88-18.44-45.54-32.8-10.78-13.29,6.46-36.52,14.4-46.37,16-19.81,32.54-24.3,56.29-16.83,42.7,13.42,50.13-51.92,86.39-52.61,11.35-.21,20.46,11.1,29.72,16.1,8.74,4.72,15.67,5.93,25.43,5.12,8.39-.7,16.84-8.22,22.94-13.31a220.86,220.86,0,0,1,38.49-25.78C361.12,82,387.37,73.58,374.41,62Z" transform="translate(-8.6 -8.1)" style="mix-blend-mode:screen;fill:url(#radial-gradient-4)"/></g></g><path d="M103.62,68S-50.26,197.34,46.25,369.52C46.25,369.52-28,203,103.62,68Z" transform="translate(-8.6 -8.1)" style="fill:#fff;mix-blend-mode:overlay"/><path d="M469.88,145.34s55,173.79-46.59,284C423.29,429.33,546.55,336.62,469.88,145.34Z" transform="translate(-8.6 -8.1)" style="fill:#22613c;opacity:0.7000000000000001;mix-blend-mode:multiply"/></g></g></svg>