<svg xmlns="http://www.w3.org/2000/svg" xmlns:xlink="http://www.w3.org/1999/xlink" width="681.5" height="216.47" viewBox="0 0 681.5 216.47"><defs><clipPath id="clip-path" transform="translate(-41.08 -3.87)"><rect width="750" height="220" style="fill:none"/></clipPath></defs><title>horizon</title><g id="OBJECT"><g style="clip-path:url(#clip-path)"><polygon points="200.25 114.96 200.25 110.14 193.34 102.07 193.34 114.96 193.34 114.96 184.21 136.44 184.21 165.04 175.75 165.04 175.75 216.47 184.21 216.47 193.34 216.47 200.25 216.47 207.17 216.47 207.17 165.04 207.17 136.44 207.17 114.96 200.25 114.96" style="fill:#05d3bf"/><path d="M331.26,146.39h-1.71l-.42-18.25h1.15v-3.61h-1.17V114.18h1.17v-3.6h-1.95a6.3,6.3,0,0,0-5.59-5.09,5.89,5.89,0,0,1-4.57-3.53,5.91,5.91,0,0,1-4.58,3.53,6.31,6.31,0,0,0-5.59,5.09h-1.94v3.6h1.17v10.35h-1.17v3.61h1.15l-.27,11.5h-6V174.3h-2.42V147.73h-3.76V174.3h-5.1V160.77h-7.62v-2.48h-8.65c-1.23-5.53-6.26-10.56-13.72-11.66a14.63,14.63,0,0,1-11.38-8.77,14.66,14.66,0,0,1-11.38,8.77c-7.46,1.1-12.49,6.13-13.72,11.66h-8.65v2.48h-7.62V174.3h-5.1V147.73h-3.76V174.3h-2.42V139.64H190l-.27-11.5h1.15v-3.61h-1.17V114.18h1.17v-3.6h-1.94a6.31,6.31,0,0,0-5.59-5.09,5.91,5.91,0,0,1-4.58-3.53,5.89,5.89,0,0,1-4.57,3.53,6.31,6.31,0,0,0-5.6,5.09h-1.94v3.6h1.17v10.35h-1.17v3.61h1.15l-.42,18.25h-1.72V150h1.63l-.66,28.73h-1v3.61h.89l-.89,38H331.26l-.88-38h.88v-3.61h-1L329.63,150h1.63Zm-151,29.41h-3v-4.34a1.52,1.52,0,0,1,3,0Zm0-32.08h-3v-4.34a1.52,1.52,0,0,1,3,0Zm0-21h-3v-4.35a1.52,1.52,0,0,1,3,0Zm85.61,47.19a2.71,2.71,0,0,1,5.41,0v4.37h-5.41Zm-13.5,0a2.71,2.71,0,0,1,5.41,0v4.37h-5.41Zm-13.49,0a2.7,2.7,0,1,1,5.4,0v4.37h-5.4Zm9.45,19a25,25,0,0,1,25,23.81h-50A25,25,0,0,1,248.31,188.91Zm-22.95-19a2.71,2.71,0,0,1,5.41,0v4.37h-5.41Zm-13.5,0a2.71,2.71,0,0,1,5.41,0v4.37h-5.41Zm72.9,4.37h-5.41v-4.37a2.71,2.71,0,0,1,5.41,0Zm34.92,1.5h-3v-4.34a1.52,1.52,0,1,1,3,0Zm0-32.08h-3v-4.34a1.52,1.52,0,1,1,3,0Zm0-21h-3v-4.35a1.52,1.52,0,1,1,3,0Z" transform="translate(-41.08 -3.87)" style="fill:#e21748"/><path d="M544.06,208.72h-4.91l-6.64,11.61H697.57l-10.71-11.61h-5.92v-3.93H676.1l6.78-8.31a32.38,32.38,0,0,0-16,2.52l10.86-17.88a41.14,41.14,0,0,0-23,3.83l9.11-15a57.29,57.29,0,0,0-40.66,10.48c-13.2-11.76-32.43-21.72-58.69-18.89l7.94,13.09a54.73,54.73,0,0,0-19.68-1.32l11.26,18.56a74.27,74.27,0,0,0-26.07-2.6l15.31,15.53h-9.26Z" transform="translate(-41.08 -3.87)" style="fill:#9812a0"/><polygon points="393.29 178.68 386.99 178.68 386.99 164.97 382.04 164.97 382.04 75.82 377.77 75.82 377.77 70.02 373.77 70.02 373.77 65.45 370.04 65.45 370.04 50.7 366.45 50.7 366.45 48.14 367.63 48.14 367.63 47.5 368.21 47.5 368.21 46.21 367.63 46.21 367.63 45.57 366.45 45.57 366.45 43.33 365.4 43.33 365.4 36.48 362.76 36.48 362.76 43.33 361.71 43.33 361.71 45.57 360.52 45.57 360.52 46.21 359.95 46.21 359.95 47.5 360.52 47.5 360.52 48.14 361.71 48.14 361.71 50.7 358.12 50.7 358.12 65.45 354.39 65.45 354.39 70.02 350.39 70.02 350.39 75.82 346.11 75.82 346.11 164.97 341.3 164.97 341.3 178.68 335 178.68 335 201.22 332.08 201.22 332.08 216.47 396.21 216.47 396.21 201.22 393.29 201.22 393.29 178.68" style="fill:#fcb029"/><polygon points="314.9 190.44 313.03 190.44 313.03 174.97 310.06 174.97 310.06 151.46 306.95 151.46 306.95 133.4 304.87 133.4 304.87 82.54 302.71 82.54 302.71 70.24 298.86 70.24 298.86 45.32 296.74 45.32 296.74 31.72 294.63 31.72 294.63 45.32 294.63 63.98 294.63 70.24 293.29 70.24 293.29 82.54 288.62 82.54 288.62 133.4 286.54 133.4 286.54 151.46 283.43 151.46 283.43 174.97 280.46 174.97 280.46 190.44 278.59 190.44 278.59 216.47 314.9 216.47 314.9 190.44" style="fill:#05d3bf"/><path d="M529.63,220.33c0-37.06-10.07-66-22.39-87.61h5.43v-4.09h-7.85c-19-31.17-42-45.57-42-45.57v45.57h-5.45V64.7h-2.73v55.92h-2.72v8h-6.82v4.09h6.82v87.61h5.45V132.72h5.45v87.61ZM471.85,104.42s12.51,9,25.17,28.3H471.85Zm0,33.75h18.92v3.41H471.85Zm0,9h18.92v3.41H471.85Zm0,9h18.92v3.41H471.85Zm0,9h18.92v3.41H471.85Z" transform="translate(-41.08 -3.87)" style="fill:#05d3bf"/><polygon points="472.2 216.47 509.1 216.47 510.38 199.02 511.74 199.02 511.99 195.53 510.63 195.53 511.79 179.83 513.15 179.83 513.4 176.34 512.05 176.34 513.2 160.63 514.56 160.63 514.82 157.15 513.46 157.15 514.61 141.44 515.97 141.44 516.23 137.95 514.87 137.95 516.02 122.25 517.38 122.25 517.64 118.76 516.28 118.76 517.43 103.06 518.79 103.06 519.05 99.57 512.35 99.57 513.07 89.74 514.04 89.74 514.22 87.26 486.08 87.26 485.9 89.74 486.86 89.74 486.14 99.57 479.44 99.57 479.19 103.06 480.54 103.06 479.39 118.76 478.03 118.76 477.77 122.25 479.13 122.25 477.98 137.95 476.62 137.95 476.36 141.44 477.72 141.44 476.57 157.15 475.21 157.15 474.95 160.63 476.31 160.63 475.15 176.34 473.8 176.34 473.54 179.83 474.9 179.83 473.75 195.53 472.39 195.53 472.13 199.02 473.49 199.02 472.2 216.47" style="fill:#e21748"/><polygon points="390.45 126.16 392.33 197.46 387.37 197.46 387.37 202.92 389.95 202.92 388.75 216.47 403.67 216.47 402.47 202.92 405.05 202.92 405.05 197.46 399.82 197.46 401.69 126.16 406.49 91.99 409.03 91.99 409.03 84.16 403.05 84.16 400.15 63.55 401.54 63.55 401.54 60.34 396.83 60.34 396.83 36.76 395.31 36.76 395.31 60.34 390.61 60.34 390.61 63.55 391.99 63.55 389.1 84.16 383.39 84.16 383.39 91.99 385.65 91.99 390.45 126.16" style="fill:#e21748"/><path d="M630.56,150.4H628a51.08,51.08,0,0,0-.81-5.29l2.5-.82-.57-1.77,1.44-.47-2-6.07-1.43.46-.58-1.77-2.47.8a45.16,45.16,0,0,0-2.41-4.76l2.17-1.58-1.1-1.51,1.23-.89-3.76-5.17-1.22.89-1.1-1.51-2.15,1.56a49.4,49.4,0,0,0-3.75-3.77l1.61-2.22-1.51-1.1.89-1.22-5.17-3.75-.88,1.22-1.52-1.1-1.6,2.21a51.07,51.07,0,0,0-4.72-2.41l.87-2.68-1.77-.58.46-1.44-6.07-2-.46,1.43-1.78-.57-.87,2.68a46.94,46.94,0,0,0-5.2-.83v-2.91h-1.87V102H576v1.52h-1.87v2.91a49.24,49.24,0,0,0-5.17.82l-.93-2.87-1.78.58-.46-1.44-6.08,2,.47,1.44-1.78.58.93,2.87a45.76,45.76,0,0,0-4.63,2.36l-1.83-2.52-1.52,1.1-.88-1.23-5.17,3.76.89,1.22-1.51,1.1,1.82,2.51a50.55,50.55,0,0,0-3.67,3.65l-2.58-1.87-1.1,1.51-1.22-.89-3.76,5.17,1.23.89-1.1,1.51,2.56,1.86a45.13,45.13,0,0,0-2.36,4.59l-3.09-1-.58,1.78-1.43-.47-2,6.08,1.44.47-.58,1.77,3,1a50.26,50.26,0,0,0-.83,5.08h-3.27v1.87h-1.51V158h1.51v1.87h3.2a50.33,50.33,0,0,0,.76,5.09l-3.09,1,.57,1.78-1.43.46,2,6.08,1.44-.47.58,1.78,3-1a47.38,47.38,0,0,0,2.31,4.62l-2.61,1.9,1.09,1.51-1.22.89,3.75,5.17,1.23-.89,1.09,1.51,2.54-1.84a50.68,50.68,0,0,0,3.62,3.71l-1.87,2.56,1.51,1.1-.88,1.23,5.16,3.75.89-1.23,1.51,1.1,1.79-2.46a51.77,51.77,0,0,0,4.61,2.42l-.95,2.93,1.77.58-.46,1.43,1,.32-5.43,15.39h47.56l-5.34-15.12,1.18-.39-.47-1.44,1.78-.57-.85-2.62a47.54,47.54,0,0,0,4.74-2.36l1.65,2.27,1.51-1.1.89,1.22,5.16-3.75-.88-1.23,1.51-1.1L611.53,192a49.39,49.39,0,0,0,3.81-3.71l2.19,1.6,1.1-1.52,1.23.89,3.75-5.16-1.22-.89,1.1-1.51-2.12-1.54a47.12,47.12,0,0,0,2.47-4.73l2.53.82.58-1.78,1.44.47,2-6.07-1.44-.47.58-1.78-2.45-.79a48.45,48.45,0,0,0,.88-5.28h2.63v-1.87h1.52v-6.38h-1.52ZM580.36,202l-1.08-1.08,1.07-1.07a44.62,44.62,0,0,0,10.47-1.51l1.27.65-.71,1.4-.68.22A47.54,47.54,0,0,1,580.36,202Zm-37.23-20.47-.44-.07.26-.19Zm82.66-26.39h-.1l.1-.09Zm-3.29,0h-33a10.51,10.51,0,0,0-.36-2.64l31.46-10.22a43.11,43.11,0,0,1,2,12.86ZM593.62,196l-11-31.18a10.09,10.09,0,0,0,1.85-.87l19.44,26.75A43.45,43.45,0,0,1,593.62,196Zm-40-6L573,163.25a10.57,10.57,0,0,0,1.45.94l-11,31.24m-10.52-4.13-.35.06.15-.2Zm-10.36-10.55-.26.19.07-.46ZM538,168.42l31.43-10.21a10,10,0,0,0,1,2.25l-26.75,19.43m-7-10.69-.44-.22.33-.11C536.69,169,536.73,169.09,536.77,169.2Zm-2.27-13.7-.36-.36h.35C534.49,155.26,534.5,155.38,534.5,155.5Zm8.26-26.22-.07-.45.26.19A2.48,2.48,0,0,0,542.76,129.28Zm1.37.59,26.72,19.42a10.19,10.19,0,0,0-1.16,2.19l-31.44-10.22A42.88,42.88,0,0,1,544.13,129.87Zm21.44-15.78,10.21,31.44a10.09,10.09,0,0,0-2.25,1.13l-19.42-26.73A43.33,43.33,0,0,1,565.57,114.09Zm-12.31,4.66-.15-.2.35.06ZM604.44,120,585,146.73a9.78,9.78,0,0,0-2.32-1.19l10.21-31.44m-.6,82.29-2-6.25,2.18,6.2Zm1.06-85.74-.07-.12.1,0Zm.63.1.09,0-.12.06Zm-1.69,3.15-10.22,31.44a9.77,9.77,0,0,0-2.55-.4V111.88A42.77,42.77,0,0,1,592.31,113.9Zm-12.77-3.48v0l0,0Zm-.63,0h0l0,0Zm0,1.46v33.06a10,10,0,0,0-2.52.39l-10.22-31.45m-.45-1.38,0-.13.16.09Zm-.67-2h0Zm.07,2.25-.14,0,.09-.18Zm-28.26,28.11-.33-.11.44-.22C536.94,140.59,536.9,140.7,536.86,140.81Zm-.2.6c0,.11-.08.22-.11.32l-.22-.42Zm1.38.46,31.43,10.21a10.22,10.22,0,0,0-.43,2.43H536m-1.46,0h-.37l.38-.38C534.51,154.25,534.51,154.38,534.51,154.51Zm34.49.63h0a10.41,10.41,0,0,0,.31,2.45l-31.46,10.22a43.12,43.12,0,0,1-1.9-12.67Zm-32.54,13.12-.32.11.22-.44C536.4,168,536.42,168.15,536.46,168.26Zm33.29,13L565,196l-.36-.12Zm-5.24,16.13,0,.14-.1-.19Zm-.76.89,0,.1-.1,0Zm1.37-.69.13,0-.18.09Zm.45-1.38,10.21-31.44a10.74,10.74,0,0,0,2.49.56v33.07A42.72,42.72,0,0,1,565.57,196.2Zm12.7,3.65v.06l-.06-.06Zm.64,0h0l0,0ZM578.2,202l.07-.07V202Zm.71,0v-.09l.09.09Zm.31-3.6h-.31V165.35h.32a10.86,10.86,0,0,0,2.22-.24l.38,1.07,9.87,30.39m1.09,3.35-.09,0,.06-.12Zm.57-.29.13.06-.1,0Zm30.36-58.29-.12-.06.09,0Zm-.23-.69-.09,0,.06-.13Zm-3.15,1-31.43,10.21a10.5,10.5,0,0,0-1.16-2.38l26.73-19.42m2.79-1.91-.14,0,.08-.06Zm-.43-.59-.08,0,0-.13Zm-2.73,2L587.37,149a10.24,10.24,0,0,0-1.84-1.88L605,120.37A43.66,43.66,0,0,1,614.11,129.57Zm-7.13-12,.07,0-.13,0Zm-.57-.3,0-.13.08,0Zm-1.14-1,.24,1.55-1.25.2a44.38,44.38,0,0,0-9.62-4.94l-.63-1.23,1.4-.71,1.15.37a46.34,46.34,0,0,1,6.7,3.31ZM592,110.1l.71,1.39-1.24.63A44.54,44.54,0,0,0,581,110.46l-1.08-1.09L581,108.3a47.17,47.17,0,0,1,9.72,1.38Zm-12.45-1.74v-.09h.09Zm-.63,0-.09-.09h.09Zm-.38,1-1.09,1.09a44.48,44.48,0,0,0-10.32,1.63l0-.07-1.43-.73.63-1.22a46.88,46.88,0,0,1,11.12-1.77Zm-14.12,2.35-.73,1.43.06,0a44.74,44.74,0,0,0-9.37,4.79l0-.2-1.58-.25.2-1.26a46.57,46.57,0,0,1,10.14-5.17Zm-11.67,7.4-.2.14.05-.33Zm.85,1.18L573,147a9.47,9.47,0,0,0-1.78,1.74L544.5,129.35m-1.18-.85-.25-.18.44-.08Zm-1.67,0,.26,1.58.29-.05a44.74,44.74,0,0,0-4.93,9.55l-.16-.31-1.43.73-.5-1a46.45,46.45,0,0,1,5.32-10.32Zm-6.39,12.81.72,1.43.31-.16a44.16,44.16,0,0,0-1.75,10.66l-.28-.28-1.13,1.13-.74-.74a46.63,46.63,0,0,1,1.87-11.53Zm-2.13,14.17,1.13,1.13.26-.26a44.8,44.8,0,0,0,1.6,10.68l-.33-.17-.73,1.43-1-.49a46.86,46.86,0,0,1-1.72-11.56Zm2.36,14.12,1.42.73.15-.3a45.11,45.11,0,0,0,4.8,9.63l-.33,0-.25,1.58-1.13-.18A46.81,46.81,0,0,1,535,170.64ZM570.85,161a10.19,10.19,0,0,0,1.67,1.86L553.09,189.6a43.14,43.14,0,0,1-9-9.19Zm-18.62,29.79-.15.2-.06-.36Zm.07,1.62,1.58-.26,0-.18A44.47,44.47,0,0,0,563,196.8l-.72,2a47.19,47.19,0,0,1-9.75-5.19Zm13.46,7.66-.64-1.26,1.42-.73v0a45.06,45.06,0,0,0,10.26,1.78l1.11,1.11-1,1A46.14,46.14,0,0,1,565.76,200.06Zm29-.79h0l-.69-2a44.36,44.36,0,0,0,9.58-4.76l1.31.21-.25,1.55-1.48,1.07a46.34,46.34,0,0,1-6.7,3.31Zm11.09-5.9.06.08-.08.05Zm.57-.3-.05-.08.13,0Zm-2-2.79L585,163.56a10.3,10.3,0,0,0,2-1.77l26.75,19.44m2.68,2.06,0-.13.08.05Zm.43-.59-.09-.06.14,0Zm-2.74-2-26.73-19.42a9.89,9.89,0,0,0,1.32-2.3l31.45,10.22A42.82,42.82,0,0,1,614.1,180.71Zm9.17-10.38-.06-.12.09,0Zm.22-.7-.09,0,.13-.06Zm-3.15-1-31.43-10.22a10.24,10.24,0,0,0,.51-2.61h33.06m3.31,0v.1l-.1-.1Zm.08-5.38h-.08v3.26l-1.11,1.11-.75-.75a44.56,44.56,0,0,0-1.68-11.08l.5-1,1.4.71,1,3.1h0C625.48,147.29,625.71,148.83,625.87,150.4ZM623,139.25l-.72,1.39-1-.49a45,45,0,0,0-5-9.94l.18-1.16,1.55.25,1.72,2.37a45.63,45.63,0,0,1,2.28,4.46l-.05,0Zm-9-15.46,1.88,2.6-.24,1.54-1.17-.18a45,45,0,0,0-7.72-7.76l-.2-1.29,1.55-.24,1.77,1.29A47.71,47.71,0,0,1,614.08,123.79Zm-63.62-5.66,1.24.2-.25,1.58.22,0a45,45,0,0,0-7.57,7.54l-.05-.32-1.58.25-.18-1.13A47.08,47.08,0,0,1,550.46,118.13Zm-8.55,65.39.18-1.17,1.58.25.05-.29a44.7,44.7,0,0,0,7.47,7.65l-.26,0,.25,1.58-1.2.19A47,47,0,0,1,541.91,183.52Zm68,7-2.29,1.66-1.54-.24.19-1.25a45.36,45.36,0,0,0,7.83-7.65l1.21-.2.24,1.55-1.5,2.07A48.06,48.06,0,0,1,610,190.54Zm9.67-11.68-1.91,2.64-1.55.25L616,180.6a44.43,44.43,0,0,0,5.16-9.85l1-.5.71,1.39-1,2.93a47.49,47.49,0,0,1-2.24,4.31ZM625,165.14l-.07,0-1,3.1-1.39.71-.49-1a44.35,44.35,0,0,0,1.84-11.06l.77-.77,1.11,1.11v3.26h0A46.35,46.35,0,0,1,625,165.14Z" transform="translate(-41.08 -3.87)" style="fill:#fcb029"/><path d="M145.23,175.82l-19.17-42C89.49,145,83.25,159.24,83.25,159.24l-4.9,61.09H215.46L213,189.23C185.36,173.62,145.23,175.82,145.23,175.82ZM113,180.58c-1.69.67-3.45,1.45-5.3,2.37v-8.54a2.65,2.65,0,1,1,5.3,0Zm1-30.43a2.14,2.14,0,1,1,4.28-.15l.18,4.93-4.29.16Zm7.35,27.78c-1.63.39-3.4.88-5.29,1.52v-6.66a2.65,2.65,0,1,1,5.29,0Zm8.79-1.15a38.65,38.65,0,0,0-5.3.47v-6a2.65,2.65,0,1,1,5.3,0Zm31,17.49-5.37,0,0-6.18a2.69,2.69,0,0,1,5.37,0Zm27.59-5-2.91,0,0-3.34a1.47,1.47,0,0,1,1.46-1.45,1.45,1.45,0,0,1,1.44,1.46Zm10,12.57-2.19,0,.06-2.53a1.08,1.08,0,0,1,1.12-1.07,1.09,1.09,0,0,1,1.07,1.12Zm11.38-5.22-2.9,0,0-3.34a1.45,1.45,0,0,1,2.9,0Z" transform="translate(-41.08 -3.87)" style="fill:#9812a0"/><path d="M293,121.24l-3.51,4.91s-3.1.55-4-5-5.68-9-5.68-9c-.54-.29-2.46-5.69-2.46-5.69s.11-4.15-.27-4.77-.2-3.56-.15-4.81l8-.74L277,94.9a8.21,8.21,0,0,0-.18-1.19l8.76-1.57-9.51-.39a5.56,5.56,0,0,0-.77-1l6.36-6.53-8.13,5.32a7.78,7.78,0,0,0-2.49-.6l-1.18-9.53-.91,9.53a7.65,7.65,0,0,0-2.44.6l-8.13-5.32,6.39,6.55a5.29,5.29,0,0,0-.72,1L257.4,92c0-.66,0-1.41,0-2.2A34.33,34.33,0,0,0,255.35,81c-.91-1.73-.64-4.58-.71-7.12a22,22,0,0,0-1.23-6.45,8.28,8.28,0,0,1-.34-2.51h1.2V63.21h1.41v-1.6h.82v-5h-3.62c1.84-2.52,5.62-9.44-1.65-16.76a8.91,8.91,0,0,1-.6,5.71c-1.33,2.38-6.88,6.9-2.58,11h-3.33v5h.82v1.6H247v1.72h.87c-.23,8.37,1.3,11.43,1.75,13.19a62.35,62.35,0,0,1,.54,8.06c-.19,2.53,2,9.63,2,9.63-4.71,5.5-2.87,13.37-2.87,13.37l1.69.9v2.65l-.06.11,1.57,1.57-.46,3.47,1,1.37-.51,2.63,3.18,5.65L252,141.3l2.48,1.56L253.5,149l.82,7.4.85,7.81.43,3.88a82.11,82.11,0,0,0-1,9.17l-.18,5.21c-.06,4.9.22,8.31.22,8.31l-3.44,11.62h-4.93v17.94h44.41V202.39h-3.15l-1.34-12.3,2.22-2.22V173.75l3.38-3.07L288.45,152,294,140.54s4.16-3.11,5.75-5.32a4.08,4.08,0,0,0,0-4.51l2.27-4.54ZM257.59,93.3a2.7,2.7,0,0,1-.14-.62l5.88,1a7.11,7.11,0,0,0-.13,1.15l-4,.59A15.58,15.58,0,0,1,257.59,93.3Zm4.91,9.4L261,101.18s-.21-1.27-.32-2.93a4,4,0,0,0-.7-1.71l3.35.31.35,3.61Zm1.61-7.29c-.09.12-.19.23-.27.35a5.46,5.46,0,0,1,0-.57,5.52,5.52,0,0,1,.05-.71l.45.56C264.23,95.16,264.17,95.29,264.11,95.41Zm.61-1-.64-.81a4.74,4.74,0,0,1,.5-1.07l.64,1.31A4.63,4.63,0,0,0,264.72,94.36Zm1.08-1.1-.71-1.47a5.24,5.24,0,0,1,.79-.77l.61,1.76A6.12,6.12,0,0,0,265.8,93.26Zm1.37-.83-.64-1.87a6.42,6.42,0,0,1,1.21-.58L268,92.1A6.92,6.92,0,0,0,267.17,92.43Zm2.54-.68a9,9,0,0,0-.95.16l-.28-2.15a6.28,6.28,0,0,1,1.23-.17Zm1.73-.06a7.8,7.8,0,0,0-1,0v-2.1a6.08,6.08,0,0,1,1.22.17Z" transform="translate(-41.08 -3.87)" style="fill:#fcb029"/><path d="M342.93,209.92a30.23,30.23,0,1,1,58.62,10.41h34s-16.94-14.66-32.65-51.62h1.57V156.77h-6.29c-1.87-5.11-3.7-10.55-5.45-16.36h1.48v-6H391C383.23,106.58,377.38,71,376.73,26.19h1.78V14.74h-2V12.69h-2.57V3.87H372.4v8.82h-2.57v2.05h-2V26.19h1.78c-.66,44.77-6.51,80.39-14.29,108.25h-3.58v6h1.86c-1.75,5.81-3.58,11.25-5.45,16.36h-6.67v11.94h1.95c-15.71,37-32.64,51.62-32.64,51.62h34A30.15,30.15,0,0,1,342.93,209.92Zm22.25-69.51h16c1.39,6.1,2.93,11.53,4.52,16.36h-25C362.25,151.94,363.79,146.51,365.18,140.41Z" transform="translate(-41.08 -3.87)" style="fill:#9812a0"/><polygon points="200.25 114.96 200.25 110.14 193.34 102.07 193.34 114.96 193.34 114.96 184.21 136.44 184.21 165.04 175.75 165.04 175.75 216.47 184.21 216.47 193.34 216.47 200.25 216.47 207.17 216.47 207.17 165.04 207.17 136.44 207.17 114.96 200.25 114.96" style="fill:#05d3bf;opacity:0.7000000000000001"/><path d="M331.26,146.39h-1.71l-.42-18.25h1.15v-3.61h-1.17V114.18h1.17v-3.6h-1.95a6.3,6.3,0,0,0-5.59-5.09,5.89,5.89,0,0,1-4.57-3.53,5.91,5.91,0,0,1-4.58,3.53,6.31,6.31,0,0,0-5.59,5.09h-1.94v3.6h1.17v10.35h-1.17v3.61h1.15l-.27,11.5h-6V174.3h-2.42V147.73h-3.76V174.3h-5.1V160.77h-7.62v-2.48h-8.65c-1.23-5.53-6.26-10.56-13.72-11.66a14.63,14.63,0,0,1-11.38-8.77,14.66,14.66,0,0,1-11.38,8.77c-7.46,1.1-12.49,6.13-13.72,11.66h-8.65v2.48h-7.62V174.3h-5.1V147.73h-3.76V174.3h-2.42V139.64H190l-.27-11.5h1.15v-3.61h-1.17V114.18h1.17v-3.6h-1.94a6.31,6.31,0,0,0-5.59-5.09,5.91,5.91,0,0,1-4.58-3.53,5.89,5.89,0,0,1-4.57,3.53,6.31,6.31,0,0,0-5.6,5.09h-1.94v3.6h1.17v10.35h-1.17v3.61h1.15l-.42,18.25h-1.72V150h1.63l-.66,28.73h-1v3.61h.89l-.89,38H331.26l-.88-38h.88v-3.61h-1L329.63,150h1.63Zm-151,29.41h-3v-4.34a1.52,1.52,0,0,1,3,0Zm0-32.08h-3v-4.34a1.52,1.52,0,0,1,3,0Zm0-21h-3v-4.35a1.52,1.52,0,0,1,3,0Zm85.61,47.19a2.71,2.71,0,0,1,5.41,0v4.37h-5.41Zm-13.5,0a2.71,2.71,0,0,1,5.41,0v4.37h-5.41Zm-13.49,0a2.7,2.7,0,1,1,5.4,0v4.37h-5.4Zm9.45,19a25,25,0,0,1,25,23.81h-50A25,25,0,0,1,248.31,188.91Zm-22.95-19a2.71,2.71,0,0,1,5.41,0v4.37h-5.41Zm-13.5,0a2.71,2.71,0,0,1,5.41,0v4.37h-5.41Zm72.9,4.37h-5.41v-4.37a2.71,2.71,0,0,1,5.41,0Zm34.92,1.5h-3v-4.34a1.52,1.52,0,1,1,3,0Zm0-32.08h-3v-4.34a1.52,1.52,0,1,1,3,0Zm0-21h-3v-4.35a1.52,1.52,0,1,1,3,0Z" transform="translate(-41.08 -3.87)" style="fill:#e21748;opacity:0.7000000000000001"/><path d="M544.06,208.72h-4.91l-6.64,11.61H697.57l-10.71-11.61h-5.92v-3.93H676.1l6.78-8.31a32.38,32.38,0,0,0-16,2.52l10.86-17.88a41.14,41.14,0,0,0-23,3.83l9.11-15a57.29,57.29,0,0,0-40.66,10.48c-13.2-11.76-32.43-21.72-58.69-18.89l7.94,13.09a54.73,54.73,0,0,0-19.68-1.32l11.26,18.56a74.27,74.27,0,0,0-26.07-2.6l15.31,15.53h-9.26Z" transform="translate(-41.08 -3.87)" style="fill:#9812a0;opacity:0.7000000000000001"/><polygon points="393.29 178.68 386.99 178.68 386.99 164.97 382.04 164.97 382.04 75.82 377.77 75.82 377.77 70.02 373.77 70.02 373.77 65.45 370.04 65.45 370.04 50.7 366.45 50.7 366.45 48.14 367.63 48.14 367.63 47.5 368.21 47.5 368.21 46.21 367.63 46.21 367.63 45.57 366.45 45.57 366.45 43.33 365.4 43.33 365.4 36.48 362.76 36.48 362.76 43.33 361.71 43.33 361.71 45.57 360.52 45.57 360.52 46.21 359.95 46.21 359.95 47.5 360.52 47.5 360.52 48.14 361.71 48.14 361.71 50.7 358.12 50.7 358.12 65.45 354.39 65.45 354.39 70.02 350.39 70.02 350.39 75.82 346.11 75.82 346.11 164.97 341.3 164.97 341.3 178.68 335 178.68 335 201.22 332.08 201.22 332.08 216.47 396.21 216.47 396.21 201.22 393.29 201.22 393.29 178.68" style="fill:#fcb029;opacity:0.7000000000000001"/><polygon points="314.9 190.44 313.03 190.44 313.03 174.97 310.06 174.97 310.06 151.46 306.95 151.46 306.95 133.4 304.87 133.4 304.87 82.54 302.71 82.54 302.71 70.24 298.86 70.24 298.86 45.32 296.74 45.32 296.74 31.72 294.63 31.72 294.63 45.32 294.63 63.98 294.63 70.24 293.29 70.24 293.29 82.54 288.62 82.54 288.62 133.4 286.54 133.4 286.54 151.46 283.43 151.46 283.43 174.97 280.46 174.97 280.46 190.44 278.59 190.44 278.59 216.47 314.9 216.47 314.9 190.44" style="fill:#05d3bf;opacity:0.7000000000000001"/><path d="M529.63,220.33c0-37.06-10.07-66-22.39-87.61h5.43v-4.09h-7.85c-19-31.17-42-45.57-42-45.57v45.57h-5.45V64.7h-2.73v55.92h-2.72v8h-6.82v4.09h6.82v87.61h5.45V132.72h5.45v87.61ZM471.85,104.42s12.51,9,25.17,28.3H471.85Zm0,33.75h18.92v3.41H471.85Zm0,9h18.92v3.41H471.85Zm0,9h18.92v3.41H471.85Zm0,9h18.92v3.41H471.85Z" transform="translate(-41.08 -3.87)" style="fill:#05d3bf;opacity:0.7000000000000001"/><polygon points="472.2 216.47 509.1 216.47 510.38 199.02 511.74 199.02 511.99 195.53 510.63 195.53 511.79 179.83 513.15 179.83 513.4 176.34 512.05 176.34 513.2 160.63 514.56 160.63 514.82 157.15 513.46 157.15 514.61 141.44 515.97 141.44 516.23 137.95 514.87 137.95 516.02 122.25 517.38 122.25 517.64 118.76 516.28 118.76 517.43 103.06 518.79 103.06 519.05 99.57 512.35 99.57 513.07 89.74 514.04 89.74 514.22 87.26 486.08 87.26 485.9 89.74 486.86 89.74 486.14 99.57 479.44 99.57 479.19 103.06 480.54 103.06 479.39 118.76 478.03 118.76 477.77 122.25 479.13 122.25 477.98 137.95 476.62 137.95 476.36 141.44 477.72 141.44 476.57 157.15 475.21 157.15 474.95 160.63 476.31 160.63 475.15 176.34 473.8 176.34 473.54 179.83 474.9 179.83 473.75 195.53 472.39 195.53 472.13 199.02 473.49 199.02 472.2 216.47" style="fill:#e21748;opacity:0.7000000000000001"/><polygon points="390.45 126.16 392.33 197.46 387.37 197.46 387.37 202.92 389.95 202.92 388.75 216.47 403.67 216.47 402.47 202.92 405.05 202.92 405.05 197.46 399.82 197.46 401.69 126.16 406.49 91.99 409.03 91.99 409.03 84.16 403.05 84.16 400.15 63.55 401.54 63.55 401.54 60.34 396.83 60.34 396.83 36.76 395.31 36.76 395.31 60.34 390.61 60.34 390.61 63.55 391.99 63.55 389.1 84.16 383.39 84.16 383.39 91.99 385.65 91.99 390.45 126.16" style="fill:#e21748;opacity:0.7000000000000001"/><path d="M630.56,150.4H628a51.08,51.08,0,0,0-.81-5.29l2.5-.82-.57-1.77,1.44-.47-2-6.07-1.43.46-.58-1.77-2.47.8a45.16,45.16,0,0,0-2.41-4.76l2.17-1.58-1.1-1.51,1.23-.89-3.76-5.17-1.22.89-1.1-1.51-2.15,1.56a49.4,49.4,0,0,0-3.75-3.77l1.61-2.22-1.51-1.1.89-1.22-5.17-3.75-.88,1.22-1.52-1.1-1.6,2.21a51.07,51.07,0,0,0-4.72-2.41l.87-2.68-1.77-.58.46-1.44-6.07-2-.46,1.43-1.78-.57-.87,2.68a46.94,46.94,0,0,0-5.2-.83v-2.91h-1.87V102H576v1.52h-1.87v2.91a49.24,49.24,0,0,0-5.17.82l-.93-2.87-1.78.58-.46-1.44-6.08,2,.47,1.44-1.78.58.93,2.87a45.76,45.76,0,0,0-4.63,2.36l-1.83-2.52-1.52,1.1-.88-1.23-5.17,3.76.89,1.22-1.51,1.1,1.82,2.51a50.55,50.55,0,0,0-3.67,3.65l-2.58-1.87-1.1,1.51-1.22-.89-3.76,5.17,1.23.89-1.1,1.51,2.56,1.86a45.13,45.13,0,0,0-2.36,4.59l-3.09-1-.58,1.78-1.43-.47-2,6.08,1.44.47-.58,1.77,3,1a50.26,50.26,0,0,0-.83,5.08h-3.27v1.87h-1.51V158h1.51v1.87h3.2a50.33,50.33,0,0,0,.76,5.09l-3.09,1,.57,1.78-1.43.46,2,6.08,1.44-.47.58,1.78,3-1a47.38,47.38,0,0,0,2.31,4.62l-2.61,1.9,1.09,1.51-1.22.89,3.75,5.17,1.23-.89,1.09,1.51,2.54-1.84a50.68,50.68,0,0,0,3.62,3.71l-1.87,2.56,1.51,1.1-.88,1.23,5.16,3.75.89-1.23,1.51,1.1,1.79-2.46a51.77,51.77,0,0,0,4.61,2.42l-.95,2.93,1.77.58-.46,1.43,1,.32-5.43,15.39h47.56l-5.34-15.12,1.18-.39-.47-1.44,1.78-.57-.85-2.62a47.54,47.54,0,0,0,4.74-2.36l1.65,2.27,1.51-1.1.89,1.22,5.16-3.75-.88-1.23,1.51-1.1L611.53,192a49.39,49.39,0,0,0,3.81-3.71l2.19,1.6,1.1-1.52,1.23.89,3.75-5.16-1.22-.89,1.1-1.51-2.12-1.54a47.12,47.12,0,0,0,2.47-4.73l2.53.82.58-1.78,1.44.47,2-6.07-1.44-.47.58-1.78-2.45-.79a48.45,48.45,0,0,0,.88-5.28h2.63v-1.87h1.52v-6.38h-1.52ZM580.36,202l-1.08-1.08,1.07-1.07a44.62,44.62,0,0,0,10.47-1.51l1.27.65-.71,1.4-.68.22A47.54,47.54,0,0,1,580.36,202Zm-37.23-20.47-.44-.07.26-.19Zm82.66-26.39h-.1l.1-.09Zm-3.29,0h-33a10.51,10.51,0,0,0-.36-2.64l31.46-10.22a43.11,43.11,0,0,1,2,12.86ZM593.62,196l-11-31.18a10.09,10.09,0,0,0,1.85-.87l19.44,26.75A43.45,43.45,0,0,1,593.62,196Zm-40-6L573,163.25a10.57,10.57,0,0,0,1.45.94l-11,31.24m-10.52-4.13-.35.06.15-.2Zm-10.36-10.55-.26.19.07-.46ZM538,168.42l31.43-10.21a10,10,0,0,0,1,2.25l-26.75,19.43m-7-10.69-.44-.22.33-.11C536.69,169,536.73,169.09,536.77,169.2Zm-2.27-13.7-.36-.36h.35C534.49,155.26,534.5,155.38,534.5,155.5Zm8.26-26.22-.07-.45.26.19A2.48,2.48,0,0,0,542.76,129.28Zm1.37.59,26.72,19.42a10.19,10.19,0,0,0-1.16,2.19l-31.44-10.22A42.88,42.88,0,0,1,544.13,129.87Zm21.44-15.78,10.21,31.44a10.09,10.09,0,0,0-2.25,1.13l-19.42-26.73A43.33,43.33,0,0,1,565.57,114.09Zm-12.31,4.66-.15-.2.35.06ZM604.44,120,585,146.73a9.78,9.78,0,0,0-2.32-1.19l10.21-31.44m-.6,82.29-2-6.25,2.18,6.2Zm1.06-85.74-.07-.12.1,0Zm.63.1.09,0-.12.06Zm-1.69,3.15-10.22,31.44a9.77,9.77,0,0,0-2.55-.4V111.88A42.77,42.77,0,0,1,592.31,113.9Zm-12.77-3.48v0l0,0Zm-.63,0h0l0,0Zm0,1.46v33.06a10,10,0,0,0-2.52.39l-10.22-31.45m-.45-1.38,0-.13.16.09Zm-.67-2h0Zm.07,2.25-.14,0,.09-.18Zm-28.26,28.11-.33-.11.44-.22C536.94,140.59,536.9,140.7,536.86,140.81Zm-.2.6c0,.11-.08.22-.11.32l-.22-.42Zm1.38.46,31.43,10.21a10.22,10.22,0,0,0-.43,2.43H536m-1.46,0h-.37l.38-.38C534.51,154.25,534.51,154.38,534.51,154.51Zm34.49.63h0a10.41,10.41,0,0,0,.31,2.45l-31.46,10.22a43.12,43.12,0,0,1-1.9-12.67Zm-32.54,13.12-.32.11.22-.44C536.4,168,536.42,168.15,536.46,168.26Zm33.29,13L565,196l-.36-.12Zm-5.24,16.13,0,.14-.1-.19Zm-.76.89,0,.1-.1,0Zm1.37-.69.13,0-.18.09Zm.45-1.38,10.21-31.44a10.74,10.74,0,0,0,2.49.56v33.07A42.72,42.72,0,0,1,565.57,196.2Zm12.7,3.65v.06l-.06-.06Zm.64,0h0l0,0ZM578.2,202l.07-.07V202Zm.71,0v-.09l.09.09Zm.31-3.6h-.31V165.35h.32a10.86,10.86,0,0,0,2.22-.24l.38,1.07,9.87,30.39m1.09,3.35-.09,0,.06-.12Zm.57-.29.13.06-.1,0Zm30.36-58.29-.12-.06.09,0Zm-.23-.69-.09,0,.06-.13Zm-3.15,1-31.43,10.21a10.5,10.5,0,0,0-1.16-2.38l26.73-19.42m2.79-1.91-.14,0,.08-.06Zm-.43-.59-.08,0,0-.13Zm-2.73,2L587.37,149a10.24,10.24,0,0,0-1.84-1.88L605,120.37A43.66,43.66,0,0,1,614.11,129.57Zm-7.13-12,.07,0-.13,0Zm-.57-.3,0-.13.08,0Zm-1.14-1,.24,1.55-1.25.2a44.38,44.38,0,0,0-9.62-4.94l-.63-1.23,1.4-.71,1.15.37a46.34,46.34,0,0,1,6.7,3.31ZM592,110.1l.71,1.39-1.24.63A44.54,44.54,0,0,0,581,110.46l-1.08-1.09L581,108.3a47.17,47.17,0,0,1,9.72,1.38Zm-12.45-1.74v-.09h.09Zm-.63,0-.09-.09h.09Zm-.38,1-1.09,1.09a44.48,44.48,0,0,0-10.32,1.63l0-.07-1.43-.73.63-1.22a46.88,46.88,0,0,1,11.12-1.77Zm-14.12,2.35-.73,1.43.06,0a44.74,44.74,0,0,0-9.37,4.79l0-.2-1.58-.25.2-1.26a46.57,46.57,0,0,1,10.14-5.17Zm-11.67,7.4-.2.14.05-.33Zm.85,1.18L573,147a9.47,9.47,0,0,0-1.78,1.74L544.5,129.35m-1.18-.85-.25-.18.44-.08Zm-1.67,0,.26,1.58.29-.05a44.74,44.74,0,0,0-4.93,9.55l-.16-.31-1.43.73-.5-1a46.45,46.45,0,0,1,5.32-10.32Zm-6.39,12.81.72,1.43.31-.16a44.16,44.16,0,0,0-1.75,10.66l-.28-.28-1.13,1.13-.74-.74a46.63,46.63,0,0,1,1.87-11.53Zm-2.13,14.17,1.13,1.13.26-.26a44.8,44.8,0,0,0,1.6,10.68l-.33-.17-.73,1.43-1-.49a46.86,46.86,0,0,1-1.72-11.56Zm2.36,14.12,1.42.73.15-.3a45.11,45.11,0,0,0,4.8,9.63l-.33,0-.25,1.58-1.13-.18A46.81,46.81,0,0,1,535,170.64ZM570.85,161a10.19,10.19,0,0,0,1.67,1.86L553.09,189.6a43.14,43.14,0,0,1-9-9.19Zm-18.62,29.79-.15.2-.06-.36Zm.07,1.62,1.58-.26,0-.18A44.47,44.47,0,0,0,563,196.8l-.72,2a47.19,47.19,0,0,1-9.75-5.19Zm13.46,7.66-.64-1.26,1.42-.73v0a45.06,45.06,0,0,0,10.26,1.78l1.11,1.11-1,1A46.14,46.14,0,0,1,565.76,200.06Zm29-.79h0l-.69-2a44.36,44.36,0,0,0,9.58-4.76l1.31.21-.25,1.55-1.48,1.07a46.34,46.34,0,0,1-6.7,3.31Zm11.09-5.9.06.08-.08.05Zm.57-.3-.05-.08.13,0Zm-2-2.79L585,163.56a10.3,10.3,0,0,0,2-1.77l26.75,19.44m2.68,2.06,0-.13.08.05Zm.43-.59-.09-.06.14,0Zm-2.74-2-26.73-19.42a9.89,9.89,0,0,0,1.32-2.3l31.45,10.22A42.82,42.82,0,0,1,614.1,180.71Zm9.17-10.38-.06-.12.09,0Zm.22-.7-.09,0,.13-.06Zm-3.15-1-31.43-10.22a10.24,10.24,0,0,0,.51-2.61h33.06m3.31,0v.1l-.1-.1Zm.08-5.38h-.08v3.26l-1.11,1.11-.75-.75a44.56,44.56,0,0,0-1.68-11.08l.5-1,1.4.71,1,3.1h0C625.48,147.29,625.71,148.83,625.87,150.4ZM623,139.25l-.72,1.39-1-.49a45,45,0,0,0-5-9.94l.18-1.16,1.55.25,1.72,2.37a45.63,45.63,0,0,1,2.28,4.46l-.05,0Zm-9-15.46,1.88,2.6-.24,1.54-1.17-.18a45,45,0,0,0-7.72-7.76l-.2-1.29,1.55-.24,1.77,1.29A47.71,47.71,0,0,1,614.08,123.79Zm-63.62-5.66,1.24.2-.25,1.58.22,0a45,45,0,0,0-7.57,7.54l-.05-.32-1.58.25-.18-1.13A47.08,47.08,0,0,1,550.46,118.13Zm-8.55,65.39.18-1.17,1.58.25.05-.29a44.7,44.7,0,0,0,7.47,7.65l-.26,0,.25,1.58-1.2.19A47,47,0,0,1,541.91,183.52Zm68,7-2.29,1.66-1.54-.24.19-1.25a45.36,45.36,0,0,0,7.83-7.65l1.21-.2.24,1.55-1.5,2.07A48.06,48.06,0,0,1,610,190.54Zm9.67-11.68-1.91,2.64-1.55.25L616,180.6a44.43,44.43,0,0,0,5.16-9.85l1-.5.71,1.39-1,2.93a47.49,47.49,0,0,1-2.24,4.31ZM625,165.14l-.07,0-1,3.1-1.39.71-.49-1a44.35,44.35,0,0,0,1.84-11.06l.77-.77,1.11,1.11v3.26h0A46.35,46.35,0,0,1,625,165.14Z" transform="translate(-41.08 -3.87)" style="fill:#fcb029;opacity:0.7000000000000001"/><path d="M145.23,175.82l-19.17-42C89.49,145,83.25,159.24,83.25,159.24l-4.9,61.09H215.46L213,189.23C185.36,173.62,145.23,175.82,145.23,175.82ZM113,180.58c-1.69.67-3.45,1.45-5.3,2.37v-8.54a2.65,2.65,0,1,1,5.3,0Zm1-30.43a2.14,2.14,0,1,1,4.28-.15l.18,4.93-4.29.16Zm7.35,27.78c-1.63.39-3.4.88-5.29,1.52v-6.66a2.65,2.65,0,1,1,5.29,0Zm8.79-1.15a38.65,38.65,0,0,0-5.3.47v-6a2.65,2.65,0,1,1,5.3,0Zm31,17.49-5.37,0,0-6.18a2.69,2.69,0,0,1,5.37,0Zm27.59-5-2.91,0,0-3.34a1.47,1.47,0,0,1,1.46-1.45,1.45,1.45,0,0,1,1.44,1.46Zm10,12.57-2.19,0,.06-2.53a1.08,1.08,0,0,1,1.12-1.07,1.09,1.09,0,0,1,1.07,1.12Zm11.38-5.22-2.9,0,0-3.34a1.45,1.45,0,0,1,2.9,0Z" transform="translate(-41.08 -3.87)" style="fill:#9812a0;opacity:0.7000000000000001"/><path d="M293,121.24l-3.51,4.91s-3.1.55-4-5-5.68-9-5.68-9c-.54-.29-2.46-5.69-2.46-5.69s.11-4.15-.27-4.77-.2-3.56-.15-4.81l8-.74L277,94.9a8.21,8.21,0,0,0-.18-1.19l8.76-1.57-9.51-.39a5.56,5.56,0,0,0-.77-1l6.36-6.53-8.13,5.32a7.78,7.78,0,0,0-2.49-.6l-1.18-9.53-.91,9.53a7.65,7.65,0,0,0-2.44.6l-8.13-5.32,6.39,6.55a5.29,5.29,0,0,0-.72,1L257.4,92c0-.66,0-1.41,0-2.2A34.33,34.33,0,0,0,255.35,81c-.91-1.73-.64-4.58-.71-7.12a22,22,0,0,0-1.23-6.45,8.28,8.28,0,0,1-.34-2.51h1.2V63.21h1.41v-1.6h.82v-5h-3.62c1.84-2.52,5.62-9.44-1.65-16.76a8.91,8.91,0,0,1-.6,5.71c-1.33,2.38-6.88,6.9-2.58,11h-3.33v5h.82v1.6H247v1.72h.87c-.23,8.37,1.3,11.43,1.75,13.19a62.35,62.35,0,0,1,.54,8.06c-.19,2.53,2,9.63,2,9.63-4.71,5.5-2.87,13.37-2.87,13.37l1.69.9v2.65l-.06.11,1.57,1.57-.46,3.47,1,1.37-.51,2.63,3.18,5.65L252,141.3l2.48,1.56L253.5,149l.82,7.4.85,7.81.43,3.88a82.11,82.11,0,0,0-1,9.17l-.18,5.21c-.06,4.9.22,8.31.22,8.31l-3.44,11.62h-4.93v17.94h44.41V202.39h-3.15l-1.34-12.3,2.22-2.22V173.75l3.38-3.07L288.45,152,294,140.54s4.16-3.11,5.75-5.32a4.08,4.08,0,0,0,0-4.51l2.27-4.54ZM257.59,93.3a2.7,2.7,0,0,1-.14-.62l5.88,1a7.11,7.11,0,0,0-.13,1.15l-4,.59A15.58,15.58,0,0,1,257.59,93.3Zm4.91,9.4L261,101.18s-.21-1.27-.32-2.93a4,4,0,0,0-.7-1.71l3.35.31.35,3.61Zm1.61-7.29c-.09.12-.19.23-.27.35a5.46,5.46,0,0,1,0-.57,5.52,5.52,0,0,1,.05-.71l.45.56C264.23,95.16,264.17,95.29,264.11,95.41Zm.61-1-.64-.81a4.74,4.74,0,0,1,.5-1.07l.64,1.31A4.63,4.63,0,0,0,264.72,94.36Zm1.08-1.1-.71-1.47a5.24,5.24,0,0,1,.79-.77l.61,1.76A6.12,6.12,0,0,0,265.8,93.26Zm1.37-.83-.64-1.87a6.42,6.42,0,0,1,1.21-.58L268,92.1A6.92,6.92,0,0,0,267.17,92.43Zm2.54-.68a9,9,0,0,0-.95.16l-.28-2.15a6.28,6.28,0,0,1,1.23-.17Zm1.73-.06a7.8,7.8,0,0,0-1,0v-2.1a6.08,6.08,0,0,1,1.22.17Z" transform="translate(-41.08 -3.87)" style="fill:#fcb029;opacity:0.7000000000000001"/><path d="M342.93,209.92a30.23,30.23,0,1,1,58.62,10.41h34s-16.94-14.66-32.65-51.62h1.57V156.77h-6.29c-1.87-5.11-3.7-10.55-5.45-16.36h1.48v-6H391C383.23,106.58,377.38,71,376.73,26.19h1.78V14.74h-2V12.69h-2.57V3.87H372.4v8.82h-2.57v2.05h-2V26.19h1.78c-.66,44.77-6.51,80.39-14.29,108.25h-3.58v6h1.86c-1.75,5.81-3.58,11.25-5.45,16.36h-6.67v11.94h1.95c-15.71,37-32.64,51.62-32.64,51.62h34A30.15,30.15,0,0,1,342.93,209.92Zm22.25-69.51h16c1.39,6.1,2.93,11.53,4.52,16.36h-25C362.25,151.94,363.79,146.51,365.18,140.41Z" transform="translate(-41.08 -3.87)" style="fill:#9812a0;opacity:0.7000000000000001"/><g style="opacity:0.30000000000000004"><rect x="666.41" y="196.44" width="15.08" height="20.03" style="fill:#333"/><rect x="491.22" y="187.1" width="33.71" height="29.37" style="fill:#333"/><polygon points="464.61 216.47 498.31 216.47 498.31 169.62 464.61 175.57 464.61 216.47" style="fill:#333"/><polygon points="450.75 216.47 484.46 216.47 484.46 184.01 450.75 190.94 450.75 216.47" style="fill:#333"/><rect x="591.87" y="198.96" width="15.08" height="17.51" style="fill:#333"/><rect x="560.38" y="204.87" width="15.08" height="11.6" style="fill:#333"/><polygon points="573.55 216.47 593.18 216.47 593.18 192.33 573.55 197.95 573.55 216.47" style="fill:#333"/><rect x="651.39" y="208.04" width="19.61" height="8.43" style="fill:#333"/><rect x="638.74" y="197.95" width="19.61" height="18.52" style="fill:#333"/><rect x="631.78" y="189.74" width="19.61" height="26.73" style="fill:#333"/><rect x="602.73" y="189.74" width="19.61" height="26.73" style="fill:#333"/><polygon points="610.68 216.47 644.38 216.47 644.38 181.41 610.68 174.03 610.68 216.47" style="fill:#333"/><polygon points="508.07 216.47 541.77 216.47 541.77 184.01 508.07 174.03 508.07 216.47" style="fill:#333"/><polygon points="529.72 216.47 563.42 216.47 563.42 185.27 529.72 204.15 529.72 216.47" style="fill:#333"/><rect y="196.44" width="15.08" height="20.03" style="fill:#333"/><rect x="156.57" y="187.1" width="33.71" height="29.37" style="fill:#333"/><polygon points="216.89 216.47 183.19 216.47 183.19 178.3 216.89 175.57 216.89 216.47" style="fill:#333"/><polygon points="230.75 216.47 197.04 216.47 197.04 184.01 230.75 190.94 230.75 216.47" style="fill:#333"/><rect x="74.54" y="198.96" width="15.08" height="17.51" style="fill:#333"/><rect x="106.03" y="204.87" width="15.08" height="11.6" style="fill:#333"/><polygon points="107.95 216.47 88.32 216.47 88.32 192.33 107.95 197.95 107.95 216.47" style="fill:#333"/><rect x="10.5" y="189.74" width="19.61" height="26.73" style="fill:#333"/><rect x="23.15" y="179.69" width="19.61" height="36.78" style="fill:#333"/><rect x="30.11" y="189.74" width="19.61" height="26.73" style="fill:#333"/><rect x="59.16" y="189.74" width="19.61" height="26.73" style="fill:#333"/><polygon points="70.82 216.47 37.11 216.47 37.11 182.85 70.82 170.71 70.82 216.47" style="fill:#333"/><polygon points="173.43 216.47 139.72 216.47 139.72 177.4 173.43 182.72 173.43 216.47" style="fill:#333"/><polygon points="151.78 216.47 118.07 216.47 118.07 187.62 151.78 204.15 151.78 216.47" style="fill:#333"/><rect x="440.97" y="196.44" width="15.08" height="20.03" style="fill:#333"/><rect x="265.77" y="187.1" width="33.7" height="29.37" style="fill:#333"/><polygon points="239.16 216.47 272.86 216.47 272.86 169.62 239.16 175.57 239.16 216.47" style="fill:#333"/><polygon points="225.3 216.47 259.01 216.47 259.01 184.01 225.3 190.94 225.3 216.47" style="fill:#333"/><rect x="366.42" y="198.96" width="15.09" height="17.51" style="fill:#333"/><rect x="334.93" y="204.87" width="15.08" height="11.6" style="fill:#333"/><polygon points="348.1 216.47 367.73 216.47 367.73 177.4 348.1 197.95 348.1 216.47" style="fill:#333"/><rect x="425.93" y="178.3" width="19.61" height="38.17" style="fill:#333"/><rect x="413.29" y="197.95" width="19.61" height="18.52" style="fill:#333"/><polygon points="406.33 216.47 425.94 216.47 425.94 189.74 406.33 174.81 406.33 216.47" style="fill:#333"/><rect x="377.28" y="174.81" width="19.61" height="41.66" style="fill:#333"/><polygon points="385.23 216.47 418.94 216.47 418.94 153.05 385.23 159.1 385.23 216.47" style="fill:#333"/><polygon points="282.63 216.47 316.33 216.47 316.33 155.15 282.63 161.77 282.63 216.47" style="fill:#333"/><polygon points="304.27 216.47 337.97 216.47 337.97 145.75 304.27 168.81 304.27 216.47" style="fill:#333"/></g></g></g></svg>